<svg width="622" height="507" viewBox="0 0 622 507" fill="none" xmlns="http://www.w3.org/2000/svg">
<g clip-path="url(#clip0_428_243)">
<path d="M297.882 490.428C276.794 498.148 255.778 489.293 251.93 471.371C249.415 459.655 258.316 447.911 273.04 443.82C275.813 443.05 277.254 442.292 277.241 439.528C277.097 409.086 277.152 378.644 277.139 348.201C277.138 347.371 276.981 346.541 276.87 345.446C260.441 345.446 244.195 345.446 227.347 345.446C227.347 347.036 227.347 348.548 227.347 350.061C227.347 368.981 227.359 387.901 227.343 406.821C227.327 424.375 215.104 434.431 193.788 434.45C184.408 434.459 175.027 434.452 165.316 434.452C162.73 442.602 157.309 448.886 148.055 452.69C141.406 455.423 134.396 456.039 127.251 454.717C111.897 451.875 102.175 440.531 103.281 427.063C104.199 415.894 116.332 405.754 130.309 404.476C146.831 402.966 159.645 410.442 165.215 425.038C176.227 425.038 187.351 425.305 198.445 424.954C207.52 424.667 215.654 418.224 215.763 410.868C216.088 389.128 215.879 367.381 215.879 345.34C204.705 344.286 195.437 340.566 188.64 333.3C181.812 326.001 180.802 317.451 181.547 308.427C148.643 308.427 116.372 308.427 83.8632 308.427C80.5316 318.314 73.211 325.19 60.7907 327.861C44.3591 331.396 27.6259 323.756 22.868 310.655C18.103 297.535 26.6807 283.884 42.5066 279.402C58.4031 274.899 76.2333 281.345 81.935 294.157C83.5604 297.809 85.5412 298.678 90.0038 298.65C118.353 298.47 146.706 298.559 175.057 298.559C176.939 298.559 178.821 298.559 181.064 298.559C181.064 284.663 181.064 271.106 181.064 257.278C174.127 257.278 167.27 257.278 160.452 257.278C154.27 272.221 140.578 279.848 124.105 277.605C108.849 275.528 97.9885 265.222 97.8453 252.687C97.7032 240.252 108.638 229.388 123.476 227.223C140.16 224.789 153.984 232.337 160.44 247.504C167.145 247.504 173.905 247.504 181.047 247.504C181.047 233.763 181.047 220.065 181.047 206.094C148.785 206.094 116.517 206.094 83.974 206.094C80.5638 216.54 72.8166 223.798 59.4204 226.193C42.774 229.17 26.7556 220.988 22.5302 207.576C18.4273 194.553 27.7617 180.886 43.5571 176.791C59.134 172.751 76.6314 179.612 82.0893 192.378C83.5995 195.91 85.601 196.689 89.7742 196.669C118.299 196.532 146.824 196.597 175.35 196.597C177.206 196.597 179.062 196.597 181.415 196.597C179.952 176.01 189.963 162.718 215.694 158.931C215.766 157.871 215.904 156.774 215.905 155.678C215.918 135.905 215.934 116.131 215.905 96.358C215.89 86.1581 207.871 79.604 195.332 79.5422C185.426 79.4933 175.518 79.5324 165.275 79.5324C162.779 87.6919 157.219 93.9303 147.991 97.6992C141.19 100.477 133.975 100.978 126.647 99.5295C111.59 96.5533 102.18 85.358 103.282 71.9478C104.197 60.8143 116.377 50.7962 130.488 49.5697C146.91 48.1423 160.033 55.7403 165.192 70.0179C174.704 70.0179 184.388 70.011 194.072 70.0194C214.553 70.037 227.291 80.3835 227.335 97.1305C227.385 116.192 227.347 135.255 227.347 154.317C227.347 155.85 227.347 157.384 227.347 159.082C243.983 159.082 260.107 159.082 277.152 159.082C277.152 157.577 277.152 156.094 277.152 154.611C277.151 125.165 277.113 95.7182 277.211 66.2719C277.221 63.3976 276.624 61.8592 272.732 60.8031C258.303 56.8881 249.415 44.6319 251.974 33.0258C254.8 20.2107 267.849 11.1273 283.328 11.2006C298.42 11.2721 311.461 20.413 313.96 32.6704C316.47 44.9839 307.515 57.0622 292.746 61.1264C290.527 61.7372 288.713 61.9849 288.724 64.6029C288.851 95.6137 288.816 126.625 288.841 157.636C288.841 158.033 289.074 158.429 289.263 159.035C305.551 159.035 321.808 159.035 338.417 159.035C338.551 157.817 338.767 156.734 338.772 155.65C338.805 149.106 338.468 142.549 338.877 136.022C339.305 129.189 338.932 124.253 328.95 120.865C315.695 116.366 310.395 102.938 314.618 91.7905C318.965 80.3163 332.432 72.8476 346.982 73.8409C361.302 74.8184 373.209 83.5937 375.424 94.8024C377.806 106.851 369.933 118.718 355.947 122.843C351.168 124.252 350.313 126.199 350.418 129.845C350.694 139.484 350.512 149.132 350.512 159.017C367.042 159.017 383.145 159.017 399.941 159.017C399.941 157.559 399.941 156.045 399.941 154.531C399.941 135.469 399.93 116.407 399.944 97.3453C399.956 80.5425 412.899 70.0385 433.591 70.0191C441.766 70.0115 449.943 69.9332 458.115 70.0619C461.096 70.1088 462.511 69.5949 463.555 66.9208C468.311 54.747 483.33 47.6153 498.891 49.7348C513.669 51.7478 524.417 62.2022 524.509 74.6541C524.601 87.113 513.917 97.7694 499.273 99.824C483.393 102.052 468.369 94.993 463.521 82.6341C462.476 79.9721 461.045 79.4481 458.072 79.4894C449.377 79.6099 440.678 79.4791 431.982 79.5464C419.937 79.6397 411.998 86.092 411.972 95.8654C411.918 115.781 411.95 135.696 411.963 155.612C411.964 156.723 412.109 157.834 412.207 159.224C423.423 160.165 432.452 164.169 439.221 171.478C446.021 178.82 446.869 187.36 446.472 196.397C448.509 196.473 450.18 196.589 451.851 196.589C480.724 196.6 509.598 196.56 538.471 196.647C541.952 196.657 543.831 196.188 545.097 193.015C549.873 181.046 564.854 173.963 580.085 175.984C594.703 177.924 606.021 188.658 606.144 200.697C606.273 213.371 595.402 224.141 580.213 226.388C565.32 228.592 550.666 221.688 545.242 209.899C544.636 208.582 544.119 207.237 543.605 206.01C511.222 206.01 479.094 206.01 446.713 206.01C446.713 219.805 446.713 233.416 446.713 247.329C453.426 247.329 460.29 247.329 467.198 247.329C475.294 231.312 488.398 224.421 505.145 227.431C519.526 230.017 530.396 241.088 529.927 252.672C529.409 265.462 518.081 275.754 502.345 277.731C486.956 279.664 473.678 271.959 467.321 257.236C460.715 257.236 454.002 257.236 446.873 257.236C446.873 270.768 446.873 284.335 446.873 298.232C478.956 298.232 511.183 298.232 543.437 298.232C551.989 282.043 564.698 275.381 581.521 278.302C595.873 280.793 606.294 291.483 606.144 303.559C605.994 315.679 595.152 326.041 580.173 328.381C564.231 330.872 551.445 323.845 543.485 308.105C511.431 308.105 479.298 308.105 446.51 308.105C448.016 328.137 437.97 341.369 411.953 345.521C411.953 346.522 411.953 347.88 411.953 349.238C411.954 368.869 411.937 388.5 411.961 408.131C411.975 418.752 419.71 425.048 432.757 425.083C442.488 425.109 452.219 425.088 462.141 425.088C462.696 423.766 463.174 422.577 463.693 421.4C468.952 409.465 483.719 402.457 498.973 404.65C513.729 406.772 524.371 417.203 524.512 429.684C524.652 442.058 513.888 452.824 499.285 454.914C483.937 457.111 468.93 450.342 463.951 438.44C462.515 435.006 460.536 434.271 456.553 434.381C448.213 434.613 439.857 434.51 431.509 434.435C413.079 434.269 399.997 423.533 399.955 408.505C399.902 389.158 399.941 369.812 399.941 350.465C399.941 348.913 399.941 347.361 399.941 345.489C383.427 345.489 367.213 345.489 350.754 345.489C350.754 357.07 350.754 368.536 350.754 380.22C352.099 380.575 353.395 380.892 354.671 381.256C369.38 385.461 377.989 397.38 375.388 409.925C372.892 421.959 359.505 431.089 344.412 431.05C329.114 431.011 316.316 421.945 313.638 409.25C311.142 397.42 319.876 385.316 334.284 381.444C338.097 380.419 338.923 378.996 338.862 376.046C338.657 366.233 338.769 356.416 338.743 346.601C338.742 346.333 338.548 346.066 338.321 345.483C322.041 345.483 305.639 345.483 289.017 345.483C289.017 377.872 289.017 410.126 289.017 442.619C303.476 445.82 312.797 453.142 314.084 465.695C315.182 476.405 309.679 484.739 297.882 490.428ZM283.106 271.622C284.869 275.172 286.743 278.688 288.36 282.281C289.899 285.699 292.813 287.23 296.862 285.888C300.668 284.627 300.679 281.731 299.333 278.974C287.944 255.631 276.57 232.283 264.931 209.023C264.138 207.438 261.228 205.601 259.326 205.618C257.422 205.635 254.604 207.516 253.801 209.12C242.234 232.23 230.937 255.431 219.586 278.613C218.198 281.448 217.526 284.266 221.71 285.929C225.212 287.32 228.657 285.756 230.556 281.969C233.583 275.929 236.31 269.783 239.565 263.828C240.249 262.576 242.62 261.245 244.295 261.17C251.055 260.869 257.846 261.045 264.626 261.045C277.758 261.045 277.758 261.045 283.106 271.622ZM340.747 204.956C335.881 204.958 331.014 204.914 326.15 204.979C322.467 205.028 320.198 206.552 320.112 209.651C320.025 212.815 322.294 214.268 326.004 214.357C327.914 214.403 329.827 214.375 331.738 214.375C337.911 214.377 344.085 214.376 350.148 214.376C350.148 235.768 350.148 256.449 350.148 277.39C341.84 277.39 333.866 277.353 325.894 277.408C322.429 277.432 319.779 278.995 320.324 281.779C320.67 283.549 323.189 286.41 324.785 286.433C345.802 286.738 366.831 286.733 387.847 286.41C389.54 286.384 392.785 283.136 392.441 281.933C391.935 280.162 389.032 277.866 386.825 277.6C381.551 276.964 376.087 277.384 370.7 277.379C367.834 277.377 364.968 277.379 362.339 277.379C362.339 256.036 362.339 235.364 362.339 214.36C370.708 214.36 378.695 214.623 386.624 214.186C388.749 214.069 391.531 212.113 392.425 210.436C392.995 209.368 391.011 206.953 389.476 205.724C388.479 204.926 386.229 204.991 384.539 204.985C370.289 204.934 356.039 204.956 340.747 204.956Z" fill="url(#paint0_linear_428_243)"/>
<path d="M282.975 271.312C277.758 261.045 277.758 261.045 264.626 261.045C257.846 261.045 251.054 260.869 244.295 261.17C242.62 261.245 240.249 262.576 239.565 263.828C236.31 269.783 233.583 275.929 230.556 281.969C228.657 285.756 225.212 287.32 221.71 285.929C217.526 284.266 218.198 281.448 219.586 278.613C230.937 255.431 242.234 232.23 253.801 209.12C254.604 207.516 257.422 205.635 259.326 205.618C261.228 205.601 264.138 207.438 264.931 209.023C276.57 232.283 287.944 255.631 299.333 278.974C300.679 281.731 300.668 284.627 296.862 285.888C292.813 287.23 289.899 285.699 288.36 282.281C286.743 278.688 284.868 275.172 282.975 271.312ZM266.823 237.988C264.43 233.335 262.036 228.682 259.386 223.531C258.585 224.624 258.057 225.165 257.758 225.781C253.687 234.159 249.648 242.547 245.485 251.172C254.893 251.172 263.751 251.172 273.29 251.172C271.081 246.67 269.1 242.633 266.823 237.988Z" fill="#F7F7F7"/>
<path d="M341.268 204.956C356.039 204.956 370.289 204.934 384.538 204.985C386.228 204.991 388.478 204.926 389.475 205.724C391.011 206.954 392.995 209.368 392.425 210.436C391.531 212.114 388.749 214.069 386.624 214.186C378.695 214.623 370.708 214.361 362.339 214.361C362.339 235.364 362.339 256.036 362.339 277.379C364.968 277.379 367.834 277.377 370.699 277.379C376.086 277.384 381.55 276.965 386.824 277.6C389.032 277.866 391.935 280.162 392.441 281.933C392.785 283.136 389.54 286.384 387.847 286.41C366.83 286.733 345.801 286.738 324.784 286.433C323.189 286.41 320.669 283.549 320.323 281.779C319.779 278.995 322.429 277.432 325.894 277.408C333.866 277.353 341.839 277.391 350.148 277.391C350.148 256.449 350.148 235.768 350.148 214.376C344.084 214.376 337.911 214.377 331.738 214.375C329.826 214.375 327.913 214.403 326.003 214.357C322.294 214.268 320.024 212.815 320.112 209.651C320.198 206.552 322.467 205.028 326.149 204.979C331.014 204.914 335.881 204.959 341.268 204.956Z" fill="#F6F6F6"/>
<path d="M266.972 238.292C269.101 242.633 271.081 246.67 273.29 251.172C263.752 251.172 254.893 251.172 245.485 251.172C249.648 242.547 253.688 234.159 257.759 225.781C258.058 225.165 258.586 224.624 259.387 223.531C262.037 228.682 264.43 233.335 266.972 238.292Z" fill="url(#paint1_linear_428_243)"/>
</g>
<defs>
<linearGradient id="paint0_linear_428_243" x1="313.85" y1="11.2002" x2="313.85" y2="493.228" gradientUnits="userSpaceOnUse">
<stop stop-color="#D70497"/>
<stop offset="1" stop-color="#44199A"/>
</linearGradient>
<linearGradient id="paint1_linear_428_243" x1="259.388" y1="223.531" x2="259.388" y2="251.172" gradientUnits="userSpaceOnUse">
<stop stop-color="#D10598"/>
<stop offset="1" stop-color="#761299"/>
</linearGradient>
<clipPath id="clip0_428_243">
<rect width="622" height="507" fill="white"/>
</clipPath>
</defs>
</svg>
