<svg width="622" height="507" viewBox="0 0 622 507" fill="none" xmlns="http://www.w3.org/2000/svg">
<g clip-path="url(#clip0_426_176)">
<path d="M336.916 435.795C332.015 435.801 327.114 435.835 322.213 435.806C315.29 435.766 313.048 433.973 313.023 428.304C312.974 417.05 313.013 405.795 312.998 394.54C312.997 393.513 312.867 392.485 312.718 390.286C305.017 396.678 297.993 402.385 291.212 408.283C290.302 409.075 290.41 410.828 290.4 412.137C290.352 419.039 290.501 425.943 290.424 432.845C290.321 442.033 283.81 447.367 272.733 447.379C247.865 447.405 222.996 447.388 198.128 447.389C196.175 447.389 194.222 447.389 190.87 447.389C192.071 454.85 193.051 461.762 194.443 468.617C194.628 469.528 196.839 470.68 198.228 470.8C201.819 471.111 205.49 470.755 209.098 470.99C210.418 471.076 211.65 472.079 212.922 472.663C211.639 473.457 210.438 474.379 209.038 474.991C208.326 475.302 207.257 475.058 206.349 475.058C179.122 475.059 151.894 475.059 124.666 475.058C123.94 475.058 123.09 475.257 122.512 475.013C120.96 474.359 119.525 473.515 118.043 472.746C119.478 472.134 120.867 471.108 122.359 470.993C125.778 470.727 129.274 471.11 132.684 470.807C134.105 470.681 136.394 469.617 136.572 468.742C137.97 461.876 138.951 454.953 140.166 447.389C136.916 447.389 134.974 447.389 133.031 447.389C108.344 447.388 83.6577 447.398 58.9709 447.384C46.7318 447.377 40.6508 442.311 40.6493 432.142C40.643 391.325 40.6428 350.508 40.6495 309.691C40.6514 298.449 46.4945 293.702 60.2888 293.694C63.1663 293.692 66.0437 293.693 69.648 293.693C69.648 290.699 69.6419 288.05 69.6491 285.401C69.6752 275.815 73.8361 272.317 85.3087 272.314C120.342 272.302 155.376 272.309 190.409 272.309C209.106 272.309 227.802 272.29 246.499 272.318C256.94 272.334 261.394 276.038 261.451 284.641C261.47 287.457 261.454 290.274 261.454 293.694C265.468 293.694 269.036 293.676 272.603 293.698C284.059 293.768 290.394 299.002 290.428 308.555C290.481 323.11 290.443 337.667 290.444 352.223C290.444 353.824 290.444 355.426 290.444 357.283C295.009 357.706 298.956 357.986 302.864 358.48C304.182 358.647 306.38 359.269 306.453 359.835C306.594 360.922 305.849 362.408 304.859 363.214C301.26 366.144 297.408 368.862 293.998 371.401C300.727 377.034 306.511 381.877 312.719 387.075C312.822 385.344 312.993 383.784 312.995 382.225C313.017 368.869 312.982 355.514 313.019 342.158C313.038 335.186 314.938 333.637 323.155 333.612C327.328 333.6 331.502 333.559 335.674 333.503C336.008 333.499 336.336 333.278 337.491 332.859C337.491 331.565 337.491 329.973 337.491 328.38C337.492 313.974 337.477 299.568 337.498 285.162C337.51 276.799 341.219 273.672 351.149 273.671C416.315 273.663 481.481 273.663 546.647 273.672C556.42 273.673 560.109 276.733 560.155 284.827C560.313 312.733 560.455 340.639 560.601 368.544C560.609 370.151 560.602 371.757 560.602 373.944C566.066 373.944 570.911 373.905 575.755 373.953C582.769 374.024 585.629 376.374 585.634 382.186C585.662 410.698 585.67 439.21 585.631 467.722C585.621 474.452 583.303 476.323 575.29 476.325C534.084 476.334 492.879 476.333 451.674 476.326C443.335 476.324 441.233 474.517 441.199 467.428C441.158 458.806 441.158 458.807 430.975 458.806C404.473 458.805 377.971 458.831 351.469 458.788C343.281 458.774 340.015 456.815 338.035 450.293C338.519 446.589 338.868 443.478 338.686 440.388C338.594 438.837 337.537 437.325 336.916 435.795ZM541.646 318.892C541.565 320.06 541.483 321.227 541.502 323.153C540.19 335.541 532.412 344.302 519.452 350.238C517.879 350.959 515.571 352.217 515.513 353.297C515.148 359.989 515.329 366.701 515.329 373.672C528.862 373.672 541.793 373.672 555.053 373.672C555.053 355.359 555.053 337.32 555.053 318.762C550.617 318.762 546.493 318.762 541.646 318.892ZM256.32 352.963C256.32 332.77 256.32 312.578 256.32 292.281C195.351 292.281 135.082 292.281 74.6807 292.281C74.5275 293.378 74.3372 294.107 74.3367 294.835C74.3155 326.933 74.2734 359.03 74.339 391.127C74.3507 396.896 76.864 398.724 84.1042 398.726C137.263 398.738 190.422 398.733 243.582 398.733C245.488 398.733 247.394 398.733 249.698 398.733C249.565 396.218 249.569 394.432 249.36 392.663C248.057 381.627 246.74 370.592 245.358 359.564C244.704 354.353 245.388 353.748 251.622 354.116C253.101 354.204 254.616 353.876 256.32 352.963ZM318.098 355.261C318.098 378.82 318.21 402.38 317.992 425.938C317.954 430.093 319.015 431.666 324.508 431.621C353.185 431.387 381.866 431.417 410.544 431.564C415.06 431.587 416.374 430.533 416.351 426.782C416.174 398.572 416.259 370.361 416.239 342.15C416.238 340.848 416.012 339.546 415.92 338.568C415.36 338.177 415.222 337.997 415.084 337.997C383.87 337.921 352.656 337.827 321.443 337.924C320.326 337.928 318.344 339.787 318.256 340.865C317.892 345.346 318.1 349.86 318.098 355.261ZM109.477 402.659C101.129 402.659 92.7819 402.664 84.4346 402.658C73.2001 402.649 69.6479 399.669 69.6443 390.19C69.6335 361.237 69.6401 332.283 69.6399 303.33C69.6399 301.615 69.6399 299.9 69.6399 297.944C65.6165 297.944 62.5416 297.936 59.4669 297.945C49.1486 297.974 45.7218 300.774 45.7194 309.251C45.7093 344.655 45.7112 380.06 45.7265 415.464C45.7271 417.034 45.9009 418.604 45.9851 420.023C126.053 420.023 205.437 420.023 285.666 420.023C285.198 415.82 286.295 411.171 284.026 408.412C279.727 403.183 273.498 399.038 266.691 393.274C262.846 397.035 259.743 400.362 256.211 403.341C255.204 404.19 252.901 404.393 251.281 404.243C248.974 404.03 246.75 402.735 244.488 402.73C199.848 402.635 155.207 402.659 109.477 402.659ZM477.666 471.964C509.785 471.964 541.904 471.9 574.022 472.034C578.768 472.053 580.744 471.226 580.708 466.829C580.476 438.927 580.529 411.024 580.665 383.122C580.682 379.486 579.47 378.112 574.821 378.16C556.496 378.349 538.167 378.23 519.839 378.255C518.463 378.257 517.087 378.497 515.885 378.61C515.644 379.236 515.446 379.515 515.443 379.795C515.396 384.594 515.358 389.394 515.35 394.193C515.334 402.703 514.734 403.22 504.676 403.221C486.893 403.223 469.108 403.296 451.326 403.163C447.532 403.135 446.337 404.125 446.359 407.271C446.501 427.372 446.543 447.475 446.332 467.576C446.293 471.344 448.008 472.127 452.081 472.025C460.239 471.819 468.411 471.964 477.666 471.964ZM356.771 314.388C389.236 314.388 421.703 314.29 454.166 314.487C459.455 314.519 462.729 313.892 463.377 308.927C463.632 306.974 465.459 305.143 466.654 303.294C474.598 290.995 491.075 285.587 504.869 286.876C522.701 288.543 534.806 296.618 540.343 311.028C540.818 312.264 542.175 314.057 543.338 314.178C547.167 314.579 551.095 314.329 555.38 314.329C555.38 303.553 555.558 293.527 555.299 283.509C555.184 279.04 552.757 277.527 546.55 277.523C481.438 277.488 416.326 277.489 351.213 277.52C344.839 277.523 342.303 279.66 342.22 284.903C342.123 291.049 342.195 297.198 342.195 303.345C342.195 314.387 342.195 314.387 356.771 314.388ZM151.96 424.191C116.678 424.191 81.396 424.191 45.7724 424.191C45.7724 426.435 45.7753 427.922 45.772 429.409C45.7464 440.717 48.5869 443.049 62.3902 443.049C131.506 443.049 200.622 443.05 269.737 443.047C271.551 443.046 273.396 443.181 275.171 442.956C280.096 442.33 283.849 440.248 284.413 435.939C284.894 432.272 284.512 428.529 284.512 424.191C240.361 424.191 196.705 424.191 151.96 424.191ZM421.597 360.73C421.597 373.272 421.597 385.815 421.597 398.571C451.345 398.571 480.425 398.571 510.043 398.571C510.043 383.557 510.043 368.827 510.043 354.114C480.501 354.114 451.259 354.114 421.597 354.114C421.597 356.296 421.597 358.073 421.597 360.73ZM342.303 327.252C342.31 333.865 342.31 333.866 350.06 333.867C371.089 333.868 392.118 333.853 413.146 333.877C419.589 333.884 421.476 335.484 421.567 340.874C421.614 343.649 421.576 346.424 421.576 349.102C441.494 349.102 460.504 349.102 480.475 349.102C466.55 341.764 461.58 331.225 460.626 319.063C421.048 319.063 381.979 319.063 342.304 319.063C342.304 321.675 342.304 324.037 342.303 327.252ZM421.019 454.585C425.917 454.585 430.832 454.375 435.707 454.649C439.983 454.889 441.321 453.723 441.264 450.121C441.031 435.577 441.177 421.03 441.147 406.484C441.144 405.35 440.855 404.216 440.653 402.753C435.61 402.753 430.916 402.884 426.237 402.71C422.728 402.579 421.412 403.588 421.509 406.573C421.723 413.167 421.578 419.768 421.574 426.366C421.568 434.55 420.053 435.833 410.382 435.834C389.703 435.837 369.024 435.829 348.346 435.845C346.441 435.846 344.536 435.985 342.725 436.057C342.517 437.007 342.345 437.44 342.34 437.873C342.307 440.722 342.263 443.572 342.311 446.42C342.424 452.953 344.426 454.574 352.453 454.58C374.945 454.595 397.438 454.585 421.019 454.585ZM83.7492 276.496C75.4182 277.017 73.2546 280.026 75.8086 287.773C135.704 287.773 195.652 287.773 255.532 287.773C257.547 278.973 255.105 276.496 244.754 276.495C191.422 276.494 138.089 276.495 83.7492 276.496ZM288.766 370.711C292.033 368.218 295.3 365.725 298.567 363.232C298.264 362.88 297.961 362.528 297.658 362.176C282.146 360.964 266.635 359.753 250.277 358.475C251.903 371.854 253.459 384.656 255.198 398.957C258.571 395.943 261.039 393.994 263.137 391.803C266.155 388.651 268.583 388.854 271.812 391.793C276.757 396.294 282.181 400.435 286.667 404.125C293.308 398.64 299.394 393.612 306.196 387.995C301.291 384.145 295.811 380.019 290.628 375.651C289.353 374.576 289.05 372.714 288.766 370.711ZM285.315 324.642C285.313 318.955 285.364 313.267 285.293 307.58C285.237 303.112 283.128 299.261 277.573 298.48C272.411 297.755 266.982 298.325 261.789 298.325C261.789 317.433 261.789 336.066 261.789 355.046C269.637 355.69 277.125 356.305 285.315 356.977C285.315 346.116 285.315 335.829 285.315 324.642ZM492.971 348.577C494.682 348.878 496.394 349.179 498.482 349.546C498.636 347.931 498.654 346.754 498.875 345.604C499.654 341.53 498.405 338.981 492.863 337.887C489.756 337.274 486.718 335.279 484.394 333.307C476.563 326.661 476.078 316.075 482.867 308.561C489.347 301.39 501.869 298.836 511.581 303.14C515.16 304.727 517.466 304.579 519.854 301.994C521.122 300.622 522.681 299.435 524.101 298.171C510.979 288.011 487.417 289.138 475.512 300.088C458.946 315.324 464.618 342.094 492.971 348.577ZM188.09 464.477C187.36 458.884 186.629 453.292 185.894 447.67C172.108 447.67 158.618 447.67 145.042 447.67C143.987 455.449 142.97 462.959 141.924 470.678C157.717 470.678 173.407 470.678 189.438 470.678C189.025 468.706 188.661 466.97 188.09 464.477ZM500.626 335.232C510.877 334.82 517.459 330.43 519.161 322.869C520.659 316.216 516.218 309.175 508.943 306.629C501.937 304.177 495.375 304.993 489.625 308.926C483.713 312.97 482.337 318.473 484.228 324.379C486.286 330.811 491.592 334.467 500.626 335.232ZM536.16 324.709C537.913 315.962 534.93 308.38 527.709 300.757C525.718 302.706 523.866 304.039 522.795 305.714C521.87 307.161 520.871 309.376 521.573 310.593C524.452 315.581 524.907 320.587 523.544 325.882C523.327 326.724 523.541 328.166 524.209 328.546C526.946 330.1 529.935 331.35 533.425 332.991C534.459 329.997 535.243 327.727 536.16 324.709ZM516.025 347.067C522.01 344.968 526.352 341.427 530.022 337.157C522.201 331.894 522.227 331.926 515.054 335.929C513.421 336.84 511.609 337.895 509.753 338.1C504.807 338.645 503.54 340.959 504.14 344.625C504.375 346.064 504.336 347.535 504.467 349.773C508.472 348.875 511.867 348.115 516.025 347.067Z" fill="#4B93FF"/>
<path d="M343.406 148.588C343.406 139.437 343.359 130.736 343.42 122.036C343.478 113.795 348.197 109.883 358.025 109.839C364.194 109.812 370.365 109.805 376.534 109.843C386.032 109.9 390.465 113.528 390.501 121.477C390.572 137.228 390.713 152.982 390.406 168.729C390.318 173.258 391.738 176.565 396.93 178.951C398.008 178.219 399.233 177.411 400.426 176.572C405.813 172.784 413.39 173.091 418.631 177.321C423.355 181.133 424.371 187.771 419.341 191.511C410.708 197.93 406.535 205.676 402.841 214.715C393.828 236.772 358.866 244.279 336.527 229.95C334.528 228.667 332.629 227.278 331.168 226.272C328.089 226.853 325.463 227.743 322.82 227.781C311.572 227.941 300.317 227.733 289.071 227.907C284.746 227.973 282.677 226.851 282.688 223.096C282.758 198.944 282.617 174.792 282.792 150.641C282.847 143.138 287.743 139.546 296.889 139.5C303.059 139.47 309.229 139.472 315.398 139.499C324.867 139.539 329.518 143.167 329.684 150.983C329.859 159.231 329.721 167.484 329.74 175.734C329.742 176.442 329.898 177.15 330.023 178.204C334.283 175.722 338.32 173.569 342.024 171.078C343.009 170.415 343.32 168.719 343.346 167.489C343.474 161.34 343.405 155.189 343.406 148.588ZM320.94 208.819C320.695 206.437 320.035 204.024 320.29 201.678C320.806 196.934 322.389 192.237 322.514 187.501C322.842 175.065 322.587 162.619 322.646 150.177C322.663 146.561 320.511 144.978 316.313 144.978C310.148 144.98 303.982 144.953 297.817 144.979C290.944 145.008 289.706 146.064 289.704 151.893C289.694 173.78 289.694 195.666 289.711 217.553C289.712 219.126 289.876 220.699 289.959 222.188C301.116 222.188 311.569 222.188 323.15 222.188C322.422 217.751 321.754 213.685 320.94 208.819ZM367.398 223.792C358.358 216.662 349.243 209.595 340.306 202.377C334.944 198.047 334.815 191.191 339.7 187.007C345.189 182.304 352.527 182.228 358.52 186.934C362.599 190.137 366.579 193.43 370.488 196.776C372.434 198.442 373.977 198.44 375.93 196.762C379.956 193.302 383.963 189.8 388.32 186.639C391.921 184.027 391.412 182.118 388.011 179.838C378.127 173.213 367.201 170.582 354.528 172.907C332.211 177 319.974 197.927 330.209 214.843C337.984 227.694 353.385 233.998 370.439 231.31C383.48 229.255 395.515 220.053 397.222 209.79C392.247 213.867 388.026 217.251 383.91 220.72C379.45 224.478 374.381 226.059 367.398 223.792ZM350.627 142.735C350.627 151.104 350.627 159.473 350.627 168.25C362.11 165.457 372.806 166.598 383.74 170.456C383.74 153.139 383.778 136.67 383.71 120.201C383.696 116.631 381.03 115.227 376.947 115.244C370.419 115.271 363.892 115.265 357.364 115.245C352.549 115.231 350.557 117.285 350.606 121.149C350.692 128.043 350.628 134.939 350.627 142.735ZM383.292 198.45C381.492 199.931 379.569 201.325 377.918 202.912C374.879 205.833 372.235 205.886 368.975 202.952C364.44 198.87 359.501 195.095 354.735 191.189C351.561 188.588 347.894 187.946 344.647 190.628C341.392 193.317 342.198 196.314 345.387 198.922C352.868 205.038 360.279 211.215 367.816 217.283C371.792 220.484 375.134 220.474 379.136 217.221C390.39 208.075 401.576 198.871 412.734 189.644C416.174 186.8 416.524 183.062 413.543 180.927C409.921 178.332 406.636 179.229 403.524 181.822C397.008 187.252 390.405 192.611 383.292 198.45ZM398.249 209.45L398.093 209.366C398.093 209.366 398.111 209.552 398.249 209.45Z" fill="#4D93FF"/>
<path d="M220.394 111.056C233.292 100.487 245.892 90.1216 258.546 79.8008C268.151 71.9663 278.44 71.8984 288.062 79.9015C294.177 84.9878 299.799 90.479 305.726 95.8647C319.136 84.5037 331.22 74.2667 344.397 63.1027C342.897 62.1663 340.348 60.9339 338.355 59.2515C334.961 56.387 335.906 53.9645 340.525 53.3139C356.42 51.0752 372.323 48.8758 388.238 46.7369C393.22 46.0674 394.689 47.2896 393.85 51.3198C391.146 64.2974 388.386 77.2672 385.584 90.2305C384.733 94.1683 381.961 94.9911 378.528 92.1854C376.372 90.4231 374.767 88.2002 372.112 85.3103C362.319 93.699 353.971 100.959 345.474 108.097C337.713 114.617 329.825 121.034 321.931 127.445C312.626 135.001 302.024 135.025 292.634 127.514C286.509 122.615 280.478 117.635 274.386 112.706C274.158 112.521 273.739 112.497 272.053 111.992C266.634 116.709 260.887 121.868 254.931 126.856C248.051 132.618 240.932 138.185 234.032 143.93C231.584 145.968 229.641 146.003 227.184 143.928C220.713 138.463 214.164 133.057 207.483 127.769C204.477 125.389 204.974 123.576 207.758 121.416C211.988 118.134 216.01 114.668 220.394 111.056ZM377.177 53.813C367.317 55.1936 357.457 56.5742 347.088 58.0259C347.974 59.1286 348.296 59.659 348.758 60.0854C353.751 64.6895 353.76 64.6876 348.316 69.1707C336.112 79.2217 323.822 89.2032 311.753 99.3635C308.495 102.106 306.101 102.37 302.781 99.4749C296.547 94.0373 290.058 88.7945 283.548 83.5782C277.072 78.3884 270.418 77.9043 264.355 82.7807C248.109 95.8474 232.188 109.19 216.066 122.364C213.817 124.202 214.095 125.549 216.228 127.213C219.656 129.888 223.097 132.574 226.223 135.483C229.064 138.126 231.155 138.568 234.521 135.743C245.713 126.349 257.381 117.342 268.561 107.94C272.325 104.775 274.824 104.962 278.331 108.065C284.268 113.319 290.578 118.289 296.794 123.325C303.87 129.057 310.644 129.067 317.6 123.353C332.909 110.779 348.185 98.1773 363.47 85.583C370.737 79.5954 370.729 79.5951 378.768 84.3663C378.96 84.4802 379.425 84.28 380.164 84.1625C382.245 74.013 384.348 63.7544 386.6 52.7736C383.344 53.1242 380.733 53.4055 377.177 53.813Z" fill="#4B93FF"/>
<path d="M268.994 199.018C268.993 207.271 268.841 215.078 269.059 222.877C269.163 226.594 267.459 227.953 262.995 227.895C251.199 227.743 239.397 227.767 227.599 227.885C223.66 227.924 222.085 226.755 222.104 223.418C222.215 203.91 222.105 184.401 222.199 164.893C222.227 159.093 226.46 155.056 233.436 154.713C241.391 154.321 249.415 154.296 257.369 154.675C264.426 155.011 268.912 159.549 268.966 165.703C269.062 176.657 268.993 187.613 268.994 199.018ZM259.371 222.42C260.349 221.451 262.17 220.487 262.179 219.512C262.345 201.53 262.358 183.546 262.235 165.564C262.212 162.086 259.944 160.051 255.349 160.12C249.188 160.212 243.023 160.114 236.86 160.146C230.042 160.181 228.674 161.323 228.665 167.081C228.641 184.015 228.649 200.949 228.669 217.883C228.671 219.31 228.857 220.738 228.944 221.981C229.936 222.215 230.278 222.365 230.621 222.366C239.865 222.397 249.109 222.413 259.371 222.42Z" fill="#4B93FF"/>
<path d="M337.012 436.214C337.537 437.325 338.594 438.837 338.686 440.388C338.868 443.478 338.519 446.589 338.084 449.962C337.555 445.7 337.331 441.166 337.012 436.214Z" fill="#4C93FF"/>
<path d="M256.217 353.351C254.616 353.876 253.101 354.204 251.622 354.116C245.388 353.748 244.704 354.353 245.358 359.563C246.74 370.592 248.057 381.627 249.36 392.663C249.569 394.432 249.565 396.217 249.698 398.733C247.394 398.733 245.488 398.733 243.582 398.733C190.422 398.733 137.263 398.738 84.1042 398.726C76.8639 398.724 74.3507 396.896 74.3389 391.127C74.2734 359.03 74.3154 326.933 74.3367 294.835C74.3372 294.107 74.5275 293.378 74.6807 292.281C135.082 292.281 195.351 292.281 256.32 292.281C256.32 312.578 256.32 332.77 256.217 353.351ZM104.512 349.287C99.716 349.399 97.8406 351.618 97.871 355.386C97.9302 362.715 97.8249 370.046 97.9106 377.374C97.9645 381.983 99.9207 383.64 105.39 383.688C114.255 383.765 123.123 383.759 131.988 383.693C137.602 383.652 139.542 382.102 139.607 377.52C139.71 370.191 139.701 362.861 139.613 355.532C139.556 350.876 137.694 349.337 132.106 349.295C123.24 349.228 114.374 349.278 104.512 349.287ZM139.639 327.317C139.637 322.215 139.609 317.113 139.641 312.011C139.665 308.198 137.609 306.04 132.823 306.031C123.385 306.014 113.946 305.993 104.508 306.044C100.056 306.068 97.8932 308.074 97.8922 311.717C97.8899 319.37 97.877 327.023 97.9014 334.675C97.9137 338.546 100.33 340.463 104.994 340.466C111.529 340.47 118.063 340.473 124.597 340.473C139.638 340.474 139.638 340.474 139.639 327.317ZM166.223 364.851C163.685 364.871 161.104 364.677 158.629 365.015C157.59 365.157 156.778 366.427 155.862 367.184C156.73 367.822 157.486 368.679 158.498 369.032C159.431 369.357 160.64 369.159 161.727 369.159C183.492 369.163 205.256 369.164 227.02 369.157C228.287 369.157 229.699 369.363 230.777 368.971C231.718 368.629 232.666 367.643 232.865 366.819C232.98 366.339 231.743 365.289 230.902 365.081C229.559 364.748 228.039 364.858 226.594 364.857C206.825 364.847 187.056 364.851 166.223 364.851ZM164.134 321.634C162.683 321.637 161.113 321.35 159.814 321.718C158.366 322.129 157.166 323.136 155.858 323.883C157.071 324.556 158.23 325.318 159.523 325.862C160.1 326.105 160.948 325.913 161.673 325.913C183.613 325.914 205.552 325.914 227.491 325.913C228.217 325.913 229.101 326.122 229.635 325.855C230.854 325.247 231.902 324.403 233.02 323.655C231.983 322.991 231.052 322.082 229.877 321.733C228.75 321.398 227.37 321.636 226.101 321.636C205.793 321.634 185.486 321.635 164.134 321.634ZM232.946 309.405C230.978 308.62 229.017 307.166 227.041 307.152C205.307 306.988 183.57 307.049 161.834 307.05C160.928 307.05 159.902 306.838 159.145 307.118C157.982 307.549 157.005 308.321 155.948 308.948C156.937 309.592 157.836 310.39 158.944 310.824C159.686 311.115 160.724 310.893 161.63 310.893C183.547 310.894 205.464 310.911 227.381 310.861C229.115 310.857 230.848 310.383 232.946 309.405ZM166.212 350.296C164.764 350.296 163.248 350.069 161.885 350.349C159.852 350.768 157.927 351.545 155.956 352.169C157.838 352.822 159.715 354.032 161.603 354.044C183.499 354.177 205.396 354.131 227.293 354.124C228.557 354.124 229.869 354.21 231.066 353.958C231.785 353.807 232.89 353.01 232.824 352.619C232.698 351.878 232.006 350.797 231.276 350.618C229.763 350.247 228.072 350.307 226.454 350.306C206.729 350.29 187.004 350.296 166.212 350.296Z" fill="#FBFCFF"/>
<path d="M318.098 354.811C318.1 349.859 317.892 345.346 318.256 340.864C318.343 339.787 320.326 337.928 321.443 337.924C352.656 337.827 383.87 337.921 415.084 337.997C415.222 337.997 415.36 338.177 415.92 338.567C416.012 339.546 416.238 340.848 416.239 342.15C416.259 370.36 416.174 398.572 416.351 426.781C416.374 430.533 415.06 431.587 410.544 431.564C381.866 431.417 353.184 431.387 324.508 431.621C319.015 431.665 317.954 430.093 317.992 425.938C318.21 402.38 318.098 378.82 318.098 354.811ZM402.495 393.724C402.78 393.346 403.308 392.972 403.315 392.591C403.481 384.531 403.726 376.469 403.52 368.415C403.496 367.471 401.078 366.164 399.495 365.758C397.678 365.292 395.545 365.746 393.566 365.616C389.483 365.349 388.082 367.031 388.147 370.175C388.249 375.111 388.171 380.049 388.17 384.986C388.17 395.06 388.482 395.297 400.691 394.445C401.042 394.421 401.381 394.274 402.495 393.724ZM392.61 403.573C372.879 403.573 353.146 403.516 333.417 403.68C331.771 403.694 330.144 405.205 328.509 406.02C330.072 406.66 331.63 407.842 333.201 407.856C349.311 407.993 365.422 407.941 381.533 407.94C387.688 407.94 393.848 408.043 399.994 407.843C401.193 407.804 402.337 406.585 403.506 405.91C402.398 405.136 401.407 403.915 400.154 403.688C398.08 403.312 395.836 403.578 392.61 403.573ZM365.089 361.887C355.041 363.61 344.97 365.247 334.974 367.154C333.564 367.423 332.522 369.01 331.31 369.987C332.796 370.381 334.3 371.143 335.763 371.093C338.619 370.995 341.476 370.538 344.291 370.065C360.03 367.418 375.759 364.686 390.137 358.437C391.626 357.789 392.397 356.012 393.501 354.759C391.726 354.73 389.772 354.283 388.207 354.742C380.736 356.934 373.371 359.371 365.089 361.887ZM378.394 394.563C383.158 394.993 384.866 393.162 384.657 389.315C384.397 384.538 384.457 379.742 384.639 374.96C384.765 371.634 382.869 370.329 379.113 370.365C377.485 370.381 375.857 370.365 374.228 370.375C370.659 370.396 369.019 371.763 369.145 374.831C369.323 379.163 369.182 383.504 369.187 387.841C369.195 394.533 369.199 394.533 378.394 394.563ZM350.646 393.111C353.709 393.598 356.753 394.211 359.84 394.541C364.021 394.988 365.839 393.242 365.754 389.836C365.665 386.24 365.576 382.635 365.781 379.045C365.997 375.255 364.314 373.347 359.48 373.763C357.865 373.902 356.216 373.833 354.587 373.783C351.37 373.685 349.858 375.064 349.883 377.588C349.933 382.524 350.105 387.459 350.646 393.111ZM331.053 383.399C331.052 384.592 331.052 385.786 331.052 386.979C331.055 394.732 331.059 394.599 340.311 394.622C344.694 394.633 346.709 393.358 346.41 389.653C346.231 387.425 346.225 385.171 346.412 382.944C346.725 379.22 345.005 377.436 340.26 377.396C332.458 377.332 331.551 377.706 331.053 383.399ZM365.69 416.892C354.646 416.885 343.6 416.81 332.56 416.962C331.194 416.981 329.853 418.214 328.501 418.885C329.437 419.638 330.361 421.035 331.311 421.047C342.714 421.194 354.128 421.326 365.52 421.002C368.52 420.916 370.215 419.041 365.69 416.892Z" fill="#FCFDFF"/>
<path d="M110.021 402.659C155.206 402.659 199.847 402.635 244.488 402.73C246.75 402.735 248.974 404.03 251.28 404.243C252.901 404.393 255.204 404.19 256.211 403.341C259.743 400.361 262.846 397.035 266.69 393.274C273.498 399.038 279.727 403.183 284.026 408.412C286.294 411.171 285.198 415.82 285.666 420.023C205.437 420.023 126.053 420.023 45.9849 420.023C45.9007 418.604 45.7269 417.034 45.7262 415.464C45.711 380.059 45.709 344.655 45.7191 309.251C45.7216 300.774 49.1484 297.973 59.4666 297.945C62.5414 297.936 65.6162 297.944 69.6397 297.944C69.6397 299.9 69.6397 301.615 69.6397 303.33C69.6399 332.283 69.6333 361.237 69.6441 390.19C69.6477 399.669 73.1999 402.649 84.4343 402.658C92.7817 402.664 101.129 402.659 110.021 402.659Z" fill="#FBFDFF"/>
<path d="M477.121 471.964C468.41 471.964 460.239 471.819 452.081 472.024C448.008 472.127 446.292 471.344 446.332 467.576C446.542 447.475 446.5 427.372 446.359 407.271C446.336 404.125 447.532 403.135 451.326 403.163C469.108 403.296 486.892 403.222 504.676 403.221C514.733 403.22 515.334 402.703 515.349 394.193C515.358 389.394 515.396 384.594 515.443 379.795C515.445 379.515 515.644 379.236 515.885 378.61C517.086 378.497 518.462 378.257 519.838 378.255C538.166 378.229 556.496 378.349 574.821 378.16C579.47 378.112 580.682 379.486 580.664 383.121C580.528 411.024 580.476 438.927 580.707 466.829C580.744 471.225 578.768 472.053 574.022 472.034C541.904 471.9 509.784 471.964 477.121 471.964ZM542.513 404.233C542.508 406.183 542.55 408.135 542.492 410.084C542.188 420.319 544.881 418.749 531.48 418.994C528.348 419.051 526.749 418.399 526.901 415.512C527.101 411.701 524.641 410.178 520.057 410.476C516.631 410.699 513.166 410.52 509.717 410.52C500.852 410.52 500.852 410.521 499.404 417.799C497.399 417.799 495.276 417.798 493.153 417.799C479.992 417.807 479.887 417.803 479.238 428.669C479.072 431.46 477.728 432.345 474.578 432.244C470.772 432.122 466.949 432.347 463.148 432.184C459.134 432.01 457.536 433.508 457.576 436.697C457.647 442.398 457.566 448.099 457.599 453.8C457.663 464.984 456.068 463.865 469.856 463.875C500.707 463.898 531.558 463.878 562.409 463.887C565.603 463.888 568.748 464.093 568.736 460.186C568.676 441.583 568.693 422.979 568.728 404.376C568.733 401.724 567.31 400.561 564.109 400.599C558.484 400.666 552.84 400.413 547.243 400.747C545.611 400.844 544.113 402.478 542.513 404.233Z" fill="#C3D6FB"/>
<path d="M356.231 314.388C342.195 314.387 342.194 314.387 342.195 303.345C342.195 297.197 342.123 291.049 342.22 284.903C342.302 279.66 344.839 277.523 351.213 277.52C416.325 277.489 481.437 277.488 546.55 277.523C552.756 277.527 555.183 279.04 555.299 283.509C555.557 293.527 555.38 303.553 555.38 314.329C551.095 314.329 547.166 314.579 543.337 314.178C542.174 314.057 540.818 312.264 540.343 311.028C534.806 296.618 522.7 288.543 504.869 286.876C491.074 285.587 474.598 290.995 466.654 303.294C465.459 305.143 463.632 306.974 463.377 308.927C462.728 313.892 459.454 314.519 454.166 314.487C421.702 314.29 389.236 314.388 356.231 314.388ZM379.969 286.841C378.848 286.354 377.769 285.778 376.597 285.393C369.388 283.028 361.331 285.884 358.635 291.722C355.794 297.874 359.309 304.544 366.595 306.824C372.564 308.692 379.049 307.184 382.557 303.111C387.044 297.903 386.397 292.634 379.969 286.841ZM410.453 307.471C417.936 305.43 421.276 302.019 421.444 296.246C421.582 291.494 417.979 286.94 412.79 285.386C407.182 283.707 401.885 284.329 397.78 287.893C393.547 291.568 392.877 296.283 395.167 300.848C397.742 305.98 403.038 307.957 410.453 307.471Z" fill="#C2D6FB"/>
<path d="M152.504 424.191C196.705 424.191 240.361 424.191 284.512 424.191C284.512 428.529 284.893 432.272 284.413 435.938C283.848 440.248 280.095 442.33 275.171 442.956C273.396 443.181 271.55 443.046 269.737 443.046C200.621 443.049 131.506 443.049 62.3898 443.049C48.5865 443.049 45.7461 440.717 45.7717 429.409C45.775 427.922 45.7721 426.435 45.7721 424.191C81.3956 424.191 116.678 424.191 152.504 424.191Z" fill="#C5D7FB"/>
<path d="M421.597 360.289C421.597 358.073 421.597 356.296 421.597 354.115C451.259 354.115 480.501 354.115 510.044 354.115C510.044 368.827 510.044 383.557 510.044 398.571C480.425 398.571 451.345 398.571 421.597 398.571C421.597 385.815 421.597 373.272 421.597 360.289ZM474.836 392.3C476.813 391.281 478.998 390.457 480.725 389.202C484.253 386.638 487.438 386.143 491.154 389.035C492.949 390.431 495.287 391.529 497.615 392.201C498.715 392.519 500.373 391.52 501.777 391.117C501.063 390.222 500.543 389.134 499.587 388.48C498.365 387.642 496.688 387.272 495.387 386.495C486.171 380.989 485.977 380.881 476.604 386.677C473.546 388.568 471.08 388.438 468.371 386.559C460.609 381.176 458.213 380.62 449.739 386.646C447.033 388.571 444.424 388.568 441.51 386.548C439.192 384.941 436.417 383.705 433.644 382.675C432.891 382.395 431.409 383.453 430.262 383.898C430.753 384.733 430.995 385.832 431.79 386.347C433.335 387.346 435.304 387.889 436.899 388.846C445.315 393.893 446.156 394.072 454.354 388.806C458.136 386.377 460.804 386.893 464.393 389.03C467.143 390.669 470.767 391.303 474.836 392.3ZM434.548 360.327C433.087 361.12 431.625 361.912 430.163 362.704C431.736 363.354 433.304 364.559 434.883 364.569C455.573 364.695 476.264 364.654 496.955 364.648C497.861 364.647 498.962 364.834 499.625 364.485C500.556 363.994 501.551 363.148 501.758 362.324C501.877 361.85 500.608 360.761 499.765 360.579C498.224 360.247 496.536 360.332 494.909 360.331C475.125 360.319 455.342 360.324 434.548 360.327ZM469.176 375.64C474.967 375.64 480.765 375.76 486.545 375.555C488.013 375.503 489.428 374.42 490.867 373.81C489.363 373.127 487.887 371.91 486.348 371.854C480.207 371.627 474.043 371.671 467.896 371.832C466.56 371.868 465.259 372.805 463.941 373.326C465.345 374.097 466.748 374.868 469.176 375.64ZM448.12 371.759C443.237 371.761 438.349 371.662 433.476 371.844C432.369 371.885 431.316 372.899 430.238 373.466C431.334 374.187 432.394 375.483 433.534 375.533C438.764 375.759 444.035 375.855 449.253 375.55C451.927 375.395 454.521 374.301 457.151 373.631C454.489 373.007 451.826 372.383 448.12 371.759Z" fill="#F9FBFF"/>
<path d="M342.303 326.825C342.303 324.037 342.303 321.675 342.303 319.062C381.978 319.062 421.048 319.062 460.626 319.062C461.579 331.225 466.55 341.764 480.474 349.102C460.503 349.102 441.493 349.102 421.575 349.102C421.575 346.424 421.614 343.649 421.567 340.874C421.475 335.484 419.588 333.884 413.146 333.877C392.117 333.853 371.088 333.868 350.059 333.867C342.309 333.866 342.309 333.865 342.303 326.825Z" fill="#FBFDFF"/>
<path d="M420.474 454.585C397.437 454.585 374.945 454.595 352.452 454.58C344.425 454.574 342.423 452.953 342.311 446.42C342.262 443.572 342.306 440.722 342.339 437.873C342.344 437.439 342.516 437.007 342.724 436.057C344.535 435.985 346.44 435.846 348.345 435.845C369.024 435.829 389.703 435.837 410.381 435.834C420.053 435.833 421.567 434.55 421.573 426.366C421.577 419.768 421.723 413.167 421.508 406.573C421.412 403.588 422.727 402.579 426.237 402.71C430.915 402.884 435.61 402.753 440.653 402.753C440.854 404.216 441.143 405.35 441.146 406.484C441.177 421.03 441.03 435.577 441.263 450.12C441.321 453.723 439.982 454.889 435.706 454.649C430.831 454.374 425.916 454.585 420.474 454.585Z" fill="#FBFCFF"/>
<path d="M84.2533 276.496C138.09 276.495 191.422 276.494 244.754 276.495C255.105 276.496 257.547 278.973 255.532 287.773C195.652 287.773 135.705 287.773 75.8088 287.773C73.2548 280.026 75.4184 277.017 84.2533 276.496Z" fill="#C2D6FB"/>
<path d="M288.533 370.962C289.049 372.713 289.352 374.576 290.627 375.651C295.81 380.019 301.291 384.145 306.195 387.994C299.394 393.612 293.307 398.639 286.666 404.125C282.181 400.435 276.756 396.294 271.811 391.792C268.582 388.853 266.155 388.651 263.136 391.803C261.038 393.994 258.57 395.943 255.197 398.957C253.459 384.656 251.903 371.854 250.276 358.475C266.634 359.752 282.146 360.964 297.657 362.176C297.961 362.528 298.264 362.88 298.567 363.232C295.3 365.725 292.033 368.218 288.533 370.962Z" fill="#C3D7FB"/>
<path d="M542.37 318.762C546.493 318.762 550.617 318.762 555.053 318.762C555.053 337.32 555.053 355.359 555.053 373.672C541.793 373.672 528.862 373.672 515.329 373.672C515.329 366.701 515.148 359.989 515.513 353.297C515.571 352.217 517.879 350.959 519.452 350.238C532.412 344.302 540.19 335.541 541.661 322.516C542.003 320.84 542.186 319.801 542.37 318.762Z" fill="#FBFDFF"/>
<path d="M285.315 325.093C285.315 335.829 285.315 346.116 285.315 356.977C277.124 356.305 269.637 355.69 261.788 355.046C261.788 336.066 261.788 317.433 261.788 298.325C266.982 298.325 272.41 297.755 277.572 298.48C283.127 299.261 285.236 303.112 285.292 307.58C285.363 313.267 285.313 318.955 285.315 325.093Z" fill="#FCFDFF"/>
<path d="M492.53 348.536C464.618 342.093 458.945 315.324 475.511 300.087C487.416 289.138 510.978 288.011 524.1 298.171C522.681 299.435 521.121 300.622 519.854 301.994C517.466 304.578 515.16 304.727 511.58 303.14C501.869 298.836 489.347 301.39 482.866 308.561C476.078 316.075 476.562 326.661 484.394 333.307C486.718 335.279 489.755 337.274 492.862 337.887C498.405 338.981 499.654 341.53 498.874 345.604C498.654 346.754 498.635 347.931 498.481 349.546C496.393 349.179 494.682 348.878 492.53 348.536Z" fill="#F9FBFF"/>
<path d="M188.194 464.855C188.661 466.97 189.025 468.706 189.438 470.678C173.407 470.678 157.717 470.678 141.924 470.678C142.97 462.959 143.988 455.449 145.042 447.67C158.618 447.67 172.108 447.67 185.895 447.67C186.629 453.292 187.36 458.884 188.194 464.855Z" fill="#FCFDFF"/>
<path d="M500.153 335.224C491.592 334.467 486.285 330.811 484.227 324.379C482.336 318.473 483.712 312.97 489.625 308.926C495.374 304.993 501.937 304.176 508.942 306.629C516.217 309.175 520.658 316.216 519.16 322.869C517.458 330.429 510.876 334.82 500.153 335.224Z" fill="#FBFCFF"/>
<path d="M536.093 325.084C535.243 327.727 534.459 329.997 533.425 332.991C529.935 331.35 526.946 330.1 524.208 328.546C523.541 328.166 523.327 326.724 523.544 325.882C524.907 320.587 524.451 315.581 521.573 310.593C520.871 309.375 521.87 307.161 522.795 305.714C523.866 304.039 525.718 302.706 527.709 300.757C534.93 308.38 537.913 315.962 536.093 325.084Z" fill="#F7FAFF"/>
<path d="M515.643 347.21C511.867 348.115 508.472 348.875 504.468 349.773C504.336 347.535 504.375 346.064 504.14 344.624C503.54 340.959 504.807 338.645 509.754 338.1C511.61 337.895 513.421 336.84 515.054 335.929C522.227 331.926 522.201 331.894 530.022 337.157C526.352 341.427 522.01 344.968 515.643 347.21Z" fill="#C2D6FB"/>
<path d="M542.008 318.827C542.186 319.801 542.003 320.84 541.61 322.137C541.483 321.227 541.564 320.06 542.008 318.827Z" fill="#4C93FF"/>
<path d="M321.014 209.219C321.754 213.685 322.422 217.751 323.15 222.188C311.569 222.188 301.116 222.188 289.959 222.188C289.876 220.699 289.712 219.126 289.711 217.553C289.694 195.666 289.694 173.78 289.704 151.893C289.706 146.064 290.944 145.008 297.817 144.979C303.982 144.953 310.148 144.98 316.313 144.978C320.511 144.978 322.663 146.561 322.646 150.177C322.587 162.619 322.842 175.065 322.514 187.501C322.389 192.237 320.806 196.934 320.29 201.678C320.035 204.024 320.695 206.437 321.014 209.219Z" fill="#FEFFFF"/>
<path d="M367.782 223.93C374.381 226.058 379.45 224.478 383.91 220.72C388.027 217.251 392.247 213.867 397.222 209.79C395.516 220.053 383.48 229.254 370.439 231.31C353.385 233.998 337.984 227.694 330.209 214.843C319.974 197.927 332.211 177 354.529 172.907C367.201 170.582 378.127 173.213 388.011 179.838C391.412 182.118 391.921 184.027 388.321 186.639C383.963 189.8 379.956 193.302 375.93 196.762C373.977 198.44 372.435 198.442 370.488 196.776C366.579 193.43 362.599 190.137 358.52 186.934C352.527 182.228 345.189 182.303 339.7 187.007C334.815 191.191 334.944 198.047 340.306 202.377C349.243 209.595 358.358 216.662 367.782 223.93Z" fill="#C3D6FB"/>
<path d="M350.628 142.284C350.629 134.939 350.693 128.043 350.606 121.149C350.558 117.285 352.55 115.231 357.365 115.245C363.892 115.265 370.42 115.271 376.947 115.244C381.03 115.227 383.696 116.631 383.711 120.201C383.778 136.67 383.741 153.139 383.741 170.456C372.806 166.598 362.111 165.457 350.628 168.25C350.628 159.473 350.628 151.104 350.628 142.284Z" fill="#FEFFFF"/>
<path d="M383.566 198.224C390.406 192.611 397.008 187.252 403.524 181.822C406.636 179.229 409.922 178.332 413.544 180.927C416.524 183.062 416.175 186.8 412.735 189.644C401.577 198.871 390.391 208.075 379.137 217.221C375.134 220.474 371.793 220.484 367.817 217.283C360.279 211.215 352.869 205.038 345.388 198.922C342.198 196.314 341.392 193.317 344.648 190.628C347.895 187.946 351.562 188.588 354.735 191.189C359.502 195.095 364.441 198.87 368.975 202.952C372.235 205.886 374.88 205.833 377.918 202.912C379.57 201.325 381.493 199.931 383.566 198.224Z" fill="#FBFCFF"/>
<path d="M398.181 209.501C398.112 209.552 398.094 209.366 398.094 209.366C398.094 209.366 398.25 209.45 398.181 209.501Z" fill="#C3D6FB"/>
<path d="M377.648 53.75C380.732 53.4056 383.344 53.1243 386.599 52.7737C384.347 63.7544 382.244 74.013 380.163 84.1625C379.424 84.2801 378.959 84.4803 378.767 84.3663C370.729 79.5952 370.736 79.5955 363.469 85.5831C348.184 98.1773 332.909 110.78 317.599 123.353C310.643 129.067 303.87 129.057 296.793 123.325C290.577 118.289 284.267 113.319 278.33 108.065C274.824 104.962 272.324 104.775 268.561 107.94C257.38 117.342 245.713 126.349 234.52 135.743C231.154 138.568 229.063 138.126 226.222 135.483C223.096 132.575 219.656 129.888 216.228 127.214C214.094 125.55 213.816 124.202 216.066 122.364C232.187 109.191 248.108 95.8475 264.355 82.7808C270.418 77.9044 277.071 78.3885 283.547 83.5782C290.057 88.7945 296.546 94.0374 302.781 99.475C306.1 102.37 308.495 102.106 311.752 99.3636C323.822 89.2032 336.111 79.2218 348.316 69.1708C353.759 64.6876 353.75 64.6896 348.757 60.0854C348.295 59.6591 347.973 59.1287 347.088 58.026C357.456 56.5743 367.316 55.1937 377.648 53.75Z" fill="#C5D7FB"/>
<path d="M258.862 222.426C249.109 222.413 239.865 222.397 230.621 222.366C230.278 222.365 229.936 222.215 228.944 221.981C228.857 220.738 228.671 219.311 228.669 217.883C228.649 200.949 228.641 184.015 228.666 167.081C228.674 161.324 230.042 160.182 236.86 160.146C243.023 160.114 249.188 160.212 255.349 160.12C259.944 160.051 262.212 162.087 262.236 165.564C262.358 183.546 262.345 201.53 262.179 219.512C262.17 220.487 260.349 221.451 258.862 222.426Z" fill="#FCFDFF"/>
<path d="M105.009 349.283C114.373 349.278 123.24 349.228 132.105 349.295C137.693 349.337 139.556 350.876 139.612 355.532C139.701 362.861 139.71 370.191 139.606 377.52C139.542 382.102 137.602 383.652 131.987 383.693C123.122 383.759 114.255 383.765 105.39 383.688C99.9202 383.64 97.964 381.983 97.9101 377.374C97.8244 370.046 97.9296 362.715 97.8705 355.386C97.8401 351.618 99.7155 349.399 105.009 349.283ZM135.018 366.065C135.016 362.767 134.894 359.465 135.053 356.172C135.167 353.813 134.024 353.007 131.232 353.038C122.892 353.132 114.544 352.956 106.213 353.207C104.966 353.244 102.796 354.979 102.751 355.981C102.442 362.868 102.414 369.774 102.755 376.658C102.809 377.754 105.067 379.545 106.49 379.679C110.787 380.083 115.177 379.899 119.526 379.813C124.381 379.716 131.246 380.993 133.55 378.899C136.168 376.52 134.706 371.073 135.018 366.065Z" fill="#4A92FF"/>
<path d="M139.639 327.76C139.638 340.474 139.638 340.474 124.597 340.473C118.063 340.473 111.529 340.47 104.994 340.465C100.33 340.462 97.9137 338.545 97.9014 334.675C97.877 327.023 97.8899 319.37 97.8921 311.717C97.8932 308.074 100.056 306.067 104.507 306.044C113.946 305.993 123.384 306.014 132.823 306.031C137.609 306.039 139.665 308.198 139.641 312.011C139.608 317.113 139.637 322.215 139.639 327.76ZM103.576 310.125C103.264 318.272 102.882 326.418 102.776 334.567C102.767 335.229 104.636 336.473 105.655 336.49C114.52 336.635 123.392 336.627 132.256 336.456C133.186 336.438 134.853 335.094 134.871 334.343C135.062 326.323 134.99 318.299 134.99 309.872C124.347 309.872 114.436 309.872 103.576 310.125Z" fill="#4A92FF"/>
<path d="M166.754 364.851C187.055 364.851 206.824 364.847 226.593 364.857C228.039 364.858 229.558 364.748 230.902 365.081C231.742 365.289 232.979 366.339 232.864 366.818C232.666 367.643 231.717 368.629 230.776 368.971C229.698 369.362 228.286 369.157 227.019 369.157C205.255 369.164 183.491 369.163 161.727 369.159C160.639 369.159 159.43 369.357 158.498 369.032C157.485 368.679 156.729 367.821 155.861 367.184C156.777 366.427 157.59 365.157 158.628 365.015C161.103 364.677 163.684 364.871 166.754 364.851Z" fill="#5D9DFF"/>
<path d="M164.656 321.635C185.486 321.635 205.793 321.634 226.101 321.636C227.369 321.636 228.749 321.398 229.877 321.733C231.051 322.082 231.982 322.991 233.02 323.655C231.902 324.403 230.854 325.247 229.635 325.855C229.1 326.122 228.216 325.913 227.491 325.913C205.552 325.914 183.612 325.914 161.673 325.913C160.948 325.913 160.1 326.105 159.522 325.862C158.229 325.318 157.071 324.556 155.857 323.883C157.166 323.136 158.366 322.129 159.814 321.718C161.112 321.35 162.683 321.637 164.656 321.635Z" fill="#5D9DFF"/>
<path d="M232.764 309.766C230.848 310.383 229.115 310.857 227.381 310.861C205.464 310.911 183.547 310.894 161.629 310.893C160.724 310.893 159.686 311.114 158.944 310.824C157.836 310.39 156.936 309.592 155.948 308.948C157.004 308.321 157.982 307.549 159.145 307.118C159.902 306.838 160.928 307.05 161.834 307.05C183.57 307.049 205.306 306.988 227.041 307.152C229.017 307.166 230.978 308.62 232.764 309.766Z" fill="#4D93FF"/>
<path d="M166.745 350.295C187.003 350.295 206.729 350.29 226.454 350.306C228.072 350.307 229.763 350.247 231.275 350.618C232.005 350.797 232.697 351.878 232.823 352.619C232.89 353.01 231.784 353.806 231.065 353.958C229.868 354.21 228.556 354.123 227.293 354.124C205.396 354.13 183.498 354.177 161.603 354.044C159.715 354.032 157.837 352.822 155.955 352.169C157.926 351.544 159.851 350.768 161.884 350.349C163.247 350.068 164.764 350.296 166.745 350.295Z" fill="#4D93FF"/>
<path d="M402.11 393.954C401.38 394.274 401.042 394.421 400.691 394.445C388.481 395.297 388.17 395.06 388.17 384.986C388.17 380.049 388.248 375.111 388.147 370.175C388.082 367.031 389.482 365.349 393.566 365.616C395.544 365.746 397.678 365.292 399.495 365.758C401.078 366.164 403.495 367.471 403.52 368.415C403.725 376.469 403.48 384.531 403.315 392.591C403.307 392.972 402.78 393.346 402.11 393.954ZM398.72 384.783C398.71 380.614 398.83 376.439 398.577 372.28C398.53 371.5 397.048 370.251 396.133 370.189C395.252 370.13 393.45 371.308 393.424 371.98C393.206 377.483 393.206 382.997 393.437 388.5C393.468 389.238 395.056 390.293 396.123 390.501C396.757 390.625 398.147 389.503 398.535 388.718C398.979 387.816 398.69 386.667 398.72 384.783Z" fill="#4F94FF"/>
<path d="M393.137 403.573C395.836 403.578 398.08 403.312 400.154 403.688C401.408 403.915 402.398 405.136 403.506 405.91C402.337 406.585 401.193 407.804 399.994 407.843C393.848 408.043 387.689 407.94 381.534 407.94C365.423 407.941 349.311 407.993 333.201 407.856C331.63 407.842 330.073 406.659 328.509 406.019C330.144 405.204 331.772 403.694 333.417 403.68C353.147 403.516 372.879 403.573 393.137 403.573Z" fill="#5297FF"/>
<path d="M365.528 361.804C373.371 359.371 380.736 356.934 388.207 354.742C389.772 354.283 391.726 354.73 393.501 354.759C392.397 356.012 391.627 357.79 390.137 358.437C375.759 364.686 360.031 367.418 344.292 370.065C341.476 370.538 338.62 370.996 335.764 371.093C334.3 371.143 332.796 370.381 331.311 369.987C332.523 369.01 333.565 367.423 334.975 367.154C344.97 365.247 355.042 363.61 365.528 361.804Z" fill="#4F94FF"/>
<path d="M377.894 394.563C369.199 394.533 369.195 394.533 369.187 387.841C369.182 383.504 369.323 379.163 369.145 374.831C369.019 371.763 370.659 370.396 374.228 370.375C375.857 370.365 377.485 370.38 379.113 370.365C382.869 370.329 384.765 371.634 384.639 374.96C384.457 379.742 384.397 384.538 384.657 389.315C384.866 393.162 383.158 394.993 377.894 394.563ZM379.258 386.561C379.256 383.58 379.441 380.586 379.151 377.623C379.051 376.601 377.77 375.658 377.028 374.679C375.972 375.615 374.129 376.486 374.005 377.501C373.609 380.748 373.634 384.063 373.961 387.319C374.078 388.478 375.527 389.545 376.368 390.654C377.331 389.565 378.294 388.476 379.258 386.561Z" fill="#4F94FF"/>
<path d="M350.436 392.753C350.105 387.459 349.933 382.524 349.883 377.588C349.857 375.064 351.37 373.685 354.587 373.783C356.216 373.833 357.865 373.902 359.479 373.763C364.313 373.347 365.997 375.255 365.781 379.045C365.576 382.635 365.665 386.24 365.754 389.836C365.839 393.242 364.021 394.988 359.84 394.541C356.753 394.211 353.709 393.598 350.436 392.753ZM360.504 384.854C360.502 383.505 360.831 382.075 360.392 380.831C360.036 379.822 358.756 379.036 357.885 378.151C356.961 378.993 355.371 379.771 355.239 380.691C354.878 383.203 354.916 385.796 355.264 388.314C355.38 389.157 356.905 389.867 357.787 390.639C358.678 389.883 359.839 389.237 360.374 388.337C360.808 387.608 360.489 386.572 360.504 384.854Z" fill="#5297FF"/>
<path d="M331.053 382.986C331.551 377.706 332.458 377.332 340.26 377.397C345.004 377.436 346.725 379.22 346.412 382.944C346.224 385.171 346.23 387.425 346.41 389.653C346.709 393.358 344.694 394.633 340.311 394.622C331.059 394.599 331.055 394.732 331.052 386.979C331.051 385.786 331.052 384.592 331.053 382.986ZM341.1 384.265C340.163 383.449 339.351 382.452 338.22 381.914C337.824 381.726 335.944 382.659 335.936 383.093C335.897 385.403 336.124 387.733 336.575 390.013C336.639 390.334 339.292 390.648 339.319 390.58C340.031 388.776 340.555 386.922 341.1 384.265Z" fill="#4F94FF"/>
<path d="M366.132 416.929C370.214 419.041 368.52 420.917 365.52 421.002C354.128 421.326 342.713 421.194 331.31 421.047C330.36 421.035 329.436 419.638 328.5 418.885C329.852 418.214 331.193 416.981 332.559 416.962C343.6 416.81 354.645 416.886 366.132 416.929Z" fill="#5297FF"/>
<path d="M542.533 403.821C544.113 402.478 545.611 400.844 547.243 400.746C552.84 400.413 558.484 400.666 564.109 400.599C567.31 400.561 568.733 401.724 568.728 404.376C568.693 422.979 568.676 441.583 568.736 460.186C568.748 464.093 565.603 463.888 562.409 463.887C531.558 463.878 500.707 463.898 469.856 463.875C456.068 463.865 457.663 464.984 457.599 453.8C457.566 448.099 457.647 442.398 457.576 436.697C457.536 433.508 459.134 432.01 463.148 432.184C466.949 432.347 470.772 432.122 474.577 432.244C477.728 432.345 479.072 431.46 479.238 428.669C479.887 417.803 479.992 417.807 493.153 417.799C495.276 417.798 497.399 417.799 499.404 417.799C500.852 410.521 500.852 410.52 509.717 410.52C513.166 410.519 516.631 410.699 520.057 410.476C524.641 410.178 527.101 411.701 526.901 415.512C526.749 418.399 528.348 419.051 531.48 418.994C544.881 418.749 542.188 420.319 542.492 410.084C542.55 408.135 542.508 406.183 542.533 403.821ZM563.918 447.102C563.918 436.623 563.918 426.144 563.918 415.666C563.918 403.956 563.918 403.952 549.809 404.52C549.309 404.54 548.823 404.79 548.207 404.969C548.207 423.175 548.207 441.335 548.207 459.448C563.922 461.33 563.922 461.33 563.916 448.895C563.916 448.595 563.917 448.296 563.918 447.102ZM505.403 452.459C505.403 454.796 505.403 457.132 505.403 459.612C510.887 459.612 515.672 459.612 520.677 459.612C520.677 444.476 520.677 429.632 520.677 414.634C515.475 414.634 510.692 414.634 505.403 414.634C505.403 427.124 505.403 439.348 505.403 452.459ZM483.943 453.277C484.935 455.472 481.541 459.234 486.8 459.808C491.018 460.269 495.368 459.901 499.791 459.901C499.791 446.939 499.791 434.579 499.791 421.725C495.701 421.725 491.925 421.865 488.171 421.684C484.704 421.517 483.86 422.821 483.897 425.429C484.022 434.421 483.944 443.415 483.943 453.277ZM526.431 455.811C527.308 457.171 528.019 459.587 529.093 459.703C533.316 460.159 537.653 459.89 542.105 459.89C542.105 447.458 542.105 435.581 542.105 423.657C536.733 423.657 531.796 423.657 526.431 423.657C526.431 434.34 526.431 444.657 526.431 455.811ZM468.044 459.924C470.571 459.921 473.138 460.135 475.609 459.824C476.853 459.667 478.893 458.579 478.918 457.871C479.168 450.913 479.069 443.946 479.069 436.851C473.415 436.851 468.466 436.851 462.95 436.851C462.95 443.961 462.814 450.793 463.131 457.61C463.169 458.421 465.68 459.154 468.044 459.924Z" fill="#4A92FF"/>
<path d="M380.291 287.056C386.397 292.634 387.044 297.903 382.557 303.111C379.049 307.184 372.564 308.692 366.595 306.824C359.309 304.544 355.794 297.874 358.635 291.722C361.331 285.884 369.388 283.028 376.597 285.393C377.768 285.778 378.847 286.354 380.291 287.056ZM364.892 291.29C361.347 296.851 363.571 302.472 369.776 303.34C373.909 303.918 377.356 302.832 379.231 299.553C381.128 296.237 380.627 292.966 377.247 290.575C373.474 287.907 369.337 288.135 364.892 291.29Z" fill="#4F94FF"/>
<path d="M410.042 307.571C403.038 307.957 397.742 305.98 395.168 300.848C392.878 296.283 393.548 291.568 397.78 287.893C401.885 284.329 407.183 283.707 412.79 285.386C417.979 286.94 421.582 291.494 421.444 296.246C421.277 302.019 417.937 305.43 410.042 307.571ZM399.659 293.194C398.308 298.166 400.214 301.91 404.729 303.152C408.894 304.299 413.344 302.791 415.282 299.578C417.395 296.074 415.961 291.666 412.081 289.741C408.089 287.761 403.546 288.806 399.659 293.194Z" fill="#4F94FF"/>
<path d="M474.419 392.342C470.767 391.303 467.143 390.668 464.393 389.03C460.804 386.893 458.136 386.377 454.354 388.806C446.156 394.072 445.315 393.893 436.899 388.846C435.304 387.889 433.335 387.346 431.79 386.347C430.995 385.832 430.753 384.733 430.262 383.898C431.409 383.453 432.891 382.395 433.644 382.675C436.417 383.705 439.192 384.94 441.51 386.548C444.424 388.568 447.033 388.571 449.739 386.646C458.213 380.62 460.609 381.176 468.371 386.559C471.08 388.438 473.546 388.568 476.604 386.677C485.977 380.881 486.171 380.989 495.387 386.495C496.688 387.272 498.365 387.642 499.587 388.48C500.542 389.134 501.063 390.222 501.777 391.117C500.373 391.52 498.715 392.519 497.615 392.201C495.287 391.528 492.949 390.431 491.154 389.035C487.438 386.143 484.253 386.638 480.725 389.202C478.998 390.457 476.813 391.281 474.419 392.342Z" fill="#5297FF"/>
<path d="M435.053 360.325C455.341 360.324 475.125 360.319 494.909 360.331C496.535 360.332 498.224 360.247 499.765 360.579C500.608 360.761 501.877 361.849 501.758 362.323C501.55 363.148 500.556 363.994 499.624 364.485C498.961 364.834 497.861 364.647 496.955 364.648C476.264 364.654 455.573 364.695 434.883 364.569C433.304 364.559 431.736 363.354 430.163 362.704C431.625 361.912 433.086 361.119 435.053 360.325Z" fill="#5D9DFF"/>
<path d="M468.663 375.639C466.747 374.868 465.344 374.097 463.94 373.326C465.258 372.805 466.559 371.868 467.896 371.832C474.043 371.67 480.206 371.627 486.347 371.853C487.886 371.91 489.362 373.127 490.866 373.81C489.427 374.42 488.013 375.503 486.544 375.555C480.764 375.76 474.966 375.64 468.663 375.639Z" fill="#4A92FF"/>
<path d="M448.642 371.758C451.826 372.383 454.488 373.007 457.15 373.631C454.52 374.301 451.926 375.394 449.253 375.55C444.034 375.854 438.764 375.759 433.533 375.533C432.394 375.483 431.334 374.187 430.237 373.465C431.315 372.899 432.369 371.885 433.476 371.843C438.349 371.662 443.237 371.761 448.642 371.758Z" fill="#4A92FF"/>
<path d="M135.018 366.512C134.706 371.073 136.168 376.52 133.55 378.899C131.246 380.993 124.381 379.717 119.526 379.813C115.176 379.899 110.787 380.083 106.49 379.679C105.067 379.545 102.809 377.754 102.755 376.658C102.414 369.774 102.441 362.868 102.751 355.981C102.796 354.979 104.966 353.244 106.213 353.207C114.544 352.956 122.892 353.132 131.232 353.038C134.024 353.007 135.167 353.813 135.053 356.172C134.894 359.465 135.016 362.767 135.018 366.512Z" fill="#F9FBFF"/>
<path d="M104.05 309.998C114.435 309.872 124.347 309.872 134.989 309.872C134.989 318.299 135.062 326.323 134.87 334.343C134.852 335.094 133.186 336.438 132.256 336.456C123.392 336.627 114.52 336.635 105.655 336.49C104.635 336.473 102.767 335.229 102.775 334.567C102.882 326.418 103.264 318.272 104.05 309.998ZM109.44 326.021C110.075 326.55 110.799 327.025 111.332 327.618C114.431 331.065 117.265 330.549 120.381 327.513C122.708 325.247 125.679 323.423 127.914 321.106C128.997 319.983 129.049 318.18 129.567 316.685C127.906 317.168 125.843 317.295 124.664 318.205C121.685 320.503 119.104 323.154 116.364 325.663C116.161 325.184 115.957 324.706 115.754 324.228C112.756 323.215 109.758 322.202 106.76 321.189C107.473 322.649 108.186 324.11 109.44 326.021Z" fill="#F6F9FF"/>
<path d="M398.72 385.204C398.69 386.667 398.979 387.816 398.534 388.717C398.147 389.503 396.757 390.625 396.122 390.501C395.056 390.293 393.468 389.238 393.437 388.5C393.205 382.997 393.206 377.483 393.424 371.979C393.45 371.308 395.252 370.13 396.133 370.189C397.048 370.251 398.53 371.5 398.577 372.28C398.829 376.439 398.71 380.614 398.72 385.204Z" fill="#BAD1FB"/>
<path d="M379.257 386.975C378.294 388.477 377.331 389.565 376.368 390.654C375.527 389.545 374.078 388.478 373.961 387.319C373.634 384.063 373.609 380.748 374.005 377.501C374.129 376.486 375.972 375.615 377.028 374.679C377.769 375.658 379.05 376.601 379.15 377.624C379.44 380.586 379.256 383.58 379.257 386.975Z" fill="#BAD1FB"/>
<path d="M360.504 385.264C360.489 386.572 360.808 387.608 360.374 388.337C359.839 389.237 358.678 389.883 357.787 390.639C356.905 389.867 355.38 389.157 355.264 388.314C354.916 385.796 354.878 383.203 355.239 380.691C355.371 379.771 356.96 378.993 357.885 378.151C358.756 379.036 360.036 379.822 360.392 380.831C360.831 382.075 360.502 383.505 360.504 385.264Z" fill="#BAD1FB"/>
<path d="M341.105 384.671C340.555 386.922 340.03 388.776 339.318 390.58C339.291 390.648 336.639 390.334 336.575 390.013C336.123 387.733 335.897 385.403 335.936 383.093C335.943 382.659 337.824 381.726 338.22 381.914C339.351 382.452 340.162 383.449 341.105 384.671Z" fill="#BAD1FB"/>
<path d="M563.918 447.549C563.917 448.296 563.916 448.595 563.916 448.895C563.922 461.33 563.922 461.33 548.207 459.448C548.207 441.335 548.207 423.175 548.207 404.969C548.823 404.79 549.309 404.54 549.809 404.52C563.918 403.952 563.918 403.956 563.918 415.666C563.918 426.144 563.918 436.623 563.918 447.549Z" fill="#F7FAFF"/>
<path d="M505.403 452.015C505.403 439.348 505.403 427.124 505.403 414.634C510.693 414.634 515.475 414.634 520.677 414.634C520.677 429.632 520.677 444.476 520.677 459.612C515.673 459.612 510.887 459.612 505.403 459.612C505.403 457.132 505.403 454.796 505.403 452.015Z" fill="#FBFDFF"/>
<path d="M483.944 452.842C483.945 443.415 484.022 434.421 483.897 425.429C483.861 422.821 484.704 421.517 488.172 421.684C491.925 421.865 495.701 421.725 499.792 421.725C499.792 434.579 499.792 446.939 499.792 459.901C495.368 459.901 491.018 460.269 486.801 459.808C481.541 459.234 484.935 455.472 483.944 452.842Z" fill="#F6F9FF"/>
<path d="M526.431 455.392C526.431 444.657 526.431 434.34 526.431 423.657C531.796 423.657 536.733 423.657 542.105 423.657C542.105 435.581 542.105 447.458 542.105 459.89C537.653 459.89 533.316 460.159 529.093 459.703C528.019 459.587 527.308 457.171 526.431 455.392Z" fill="#F6F9FF"/>
<path d="M467.545 459.923C465.681 459.154 463.169 458.421 463.131 457.61C462.815 450.793 462.951 443.961 462.951 436.851C468.467 436.851 473.416 436.851 479.07 436.851C479.07 443.946 479.168 450.913 478.919 457.871C478.894 458.579 476.854 459.667 475.609 459.824C473.139 460.135 470.572 459.921 467.545 459.923Z" fill="#F6F9FF"/>
<path d="M365.181 291.024C369.338 288.135 373.475 287.906 377.248 290.574C380.628 292.966 381.128 296.237 379.232 299.553C377.357 302.832 373.91 303.918 369.776 303.34C363.572 302.472 361.348 296.851 365.181 291.024Z" fill="#F7FAFF"/>
<path d="M399.806 292.863C403.545 288.806 408.088 287.76 412.08 289.741C415.961 291.666 417.395 296.074 415.282 299.578C413.344 302.791 408.894 304.298 404.729 303.152C400.214 301.91 398.308 298.166 399.806 292.863Z" fill="#F7FAFF"/>
<path d="M109.17 325.796C108.187 324.11 107.474 322.649 106.761 321.189C109.759 322.202 112.756 323.215 115.754 324.228C115.958 324.706 116.161 325.185 116.364 325.663C119.105 323.154 121.685 320.503 124.664 318.205C125.843 317.295 127.907 317.168 129.567 316.685C129.049 318.18 128.997 319.983 127.914 321.106C125.679 323.423 122.708 325.247 120.381 327.514C117.265 330.549 114.431 331.065 111.332 327.618C110.799 327.026 110.076 326.55 109.17 325.796Z" fill="#5297FF"/>
</g>
<defs>
<clipPath id="clip0_426_176">
<rect width="622" height="507" fill="white"/>
</clipPath>
</defs>
</svg>
