<svg width="823" height="806" viewBox="0 0 823 806" fill="none" xmlns="http://www.w3.org/2000/svg">
<path d="M268.789 759.42C255.55 752.99 243.677 744.892 231.143 738.031C203.955 723.147 177.6 706.858 150.712 691.477C121.067 674.519 91.7025 657.07 62.29 639.71C42.8532 628.237 28.4328 611.904 20.5885 590.941C13.7972 572.792 11.2527 553.923 15.5044 534.138C20.1025 512.742 29.9568 494.871 45.7259 480.181C55.7566 470.837 67.8871 464.258 79.1928 456.608C85.3568 452.438 91.6366 448.438 98.422 443.997C91.2435 437.699 85.6984 430.756 80.8827 423.133C69.8183 405.618 66.8936 386.311 68.0354 366.16C68.7379 353.761 72.0249 341.988 77.7365 330.826C85.5492 315.557 97.0485 303.836 111.237 294.572C123.374 286.648 135.621 278.893 147.812 271.051C148.335 270.714 148.782 270.26 149.338 269.8C148.859 269.239 148.612 268.78 148.229 268.527C126.303 254.047 114.024 233.454 110.498 207.699C106.528 178.703 115.363 153.862 136.122 133.269C146.525 122.95 159.426 116.107 171.523 108.173C196.88 91.5431 222.108 74.6941 247.867 58.7046C285.619 35.2706 326.818 21.2201 370.93 15.7379C435.549 7.70707 496.711 19.296 554.292 49.159C582.255 63.6614 608.113 81.8327 634.916 98.3552C647.493 106.108 660.146 113.769 672.381 122.038C689.396 133.537 699.948 149.92 705.03 169.58C712.06 196.773 707.426 222.08 690.83 244.909C685.132 252.748 678.114 259.381 670.208 264.852C670.857 267.289 672.787 267.822 674.263 268.769C687.022 276.952 700.276 284.342 712.774 292.949C735.977 308.93 748.95 330.989 752.238 358.874C755.516 386.666 748.475 411.302 729.756 432.352C727.784 434.57 725.623 436.619 723.331 438.972C734.594 446.14 745.578 453.609 757.013 460.308C780.547 474.095 797.79 493.063 805.561 519.46C810.853 537.438 811.179 555.742 806.515 574.165C799.031 603.731 780.262 623.847 754.719 639.019C695.719 674.061 636.783 709.214 578.073 744.74C549.063 762.294 518.45 775.837 485.724 784.516C465.865 789.783 445.506 792.021 425.018 793.022C389.435 794.761 354.557 790.25 320.327 780.664C302.459 775.66 285.583 768.09 268.789 759.42ZM268.868 729.467C284.339 737.65 299.959 745.552 316.615 751.068C361.014 765.769 406.434 769.245 452.693 763.057C487.629 758.383 520.261 746.819 550.845 729.554C590.016 707.442 628.083 683.457 666.784 660.545C684.232 650.215 701.666 639.86 719.033 629.395C731.008 622.179 743.448 615.541 753.563 605.687C779.883 580.045 786.355 548.672 778.597 513.872C775.413 499.594 768.196 487.603 754.941 479.465C741.18 471.016 727.406 462.554 713.859 453.756C709.168 450.71 705.362 450.746 700.616 453.634C664.33 475.716 627.402 496.732 591.4 519.289C571.331 531.864 550.841 543.72 528.961 552.832C496.921 566.173 463.574 574.434 428.816 576.245C402.795 577.6 376.899 576.346 351.221 571.571C311.257 564.139 274.589 548.546 239.778 527.82C199.846 504.045 159.491 480.98 119.375 457.513C115.612 455.312 112.509 455.21 108.805 457.705C95.2671 466.825 81.7871 476.062 67.8717 484.579C54.9938 492.461 48.4102 504.382 44.6972 518.182C37.96 543.223 40.8348 567.191 53.5485 589.987C60.1035 601.739 68.9408 611.374 80.0029 618.699C107.937 637.196 137.393 653.19 166.403 669.886C192.219 684.745 217.432 700.642 243.81 714.563C252.13 718.954 259.976 724.432 268.868 729.467ZM227.054 104.011C209.17 115.753 191.458 127.77 173.349 139.154C157.933 148.845 147.852 162.42 143.333 179.691C140.188 191.712 140.799 204.124 144.847 216.108C148.124 225.807 152.641 234.615 160.295 241.875C172.686 253.629 188.235 260.355 202.404 269.232C217.461 278.664 233.215 286.979 248.558 295.962C259.825 302.558 270.914 309.457 282.58 315.348C312.897 330.66 344.82 340.71 378.702 343.82C397.963 345.588 417.296 345.06 436.562 343.395C461.777 341.216 486.053 334.97 509.553 325.707C528.691 318.162 546.336 307.715 563.918 297.178C593.064 279.712 622.908 263.299 650.878 244.022C672.426 229.171 679.228 205.497 675.661 181.525C672.784 162.187 661.656 147.511 645.265 136.652C632.075 127.913 618.842 119.257 605.354 110.989C585.189 98.6277 565.564 85.3535 544.761 74.0753C515.831 58.3917 484.964 48.2408 452.518 42.6574C432.321 39.182 412.024 40.1574 391.727 40.2131C379.687 40.2462 367.772 41.8691 356.054 44.2546C334.152 48.7136 312.846 55.2963 292.465 64.6216C280.8 69.9591 269.745 76.3394 258.985 83.3604C248.579 90.1508 238.691 97.7572 227.054 104.011ZM133.1 435.952C136.051 437.826 138.946 439.795 141.961 441.56C179.479 463.527 217.371 484.883 254.449 507.568C294.166 531.868 336.417 548.362 382.956 552.088C405.989 553.931 429.173 553.771 452.195 550.074C483.911 544.98 514.236 535.551 541.953 519.348C589.118 491.774 635.722 463.242 682.677 435.305C704.03 422.6 716.626 404.358 719.156 379.554C721.612 355.48 713.481 335.03 695.567 319.217C679.658 305.173 660.253 296.013 642.65 284.303C639.623 282.289 637.019 283.564 634.318 285.185C613.038 297.959 591.634 310.528 570.446 323.452C529.69 348.312 485.673 363.496 438.128 367.882C408.324 370.631 378.548 369.845 349.065 364.129C318.984 358.297 289.927 349.206 263.083 334.248C237.479 319.982 212.235 305.06 187.054 290.056C181.846 286.953 178.079 286.982 173.117 290.366C159.222 299.842 144.729 308.451 130.942 318.074C108.636 333.644 97.5233 361.318 102.09 388.676C105.406 408.538 115.997 424.06 133.1 435.952Z" fill="black" stroke="black" stroke-width="25"/>
</svg>
