<?xml version="1.0" encoding="utf-8"?>
<!-- Generator: Adobe Illustrator 28.3.0, SVG Export Plug-In . SVG Version: 6.00 Build 0)  -->
<svg version="1.1" xmlns="http://www.w3.org/2000/svg" xmlns:xlink="http://www.w3.org/1999/xlink" x="0px" y="0px"
	 viewBox="0 0 720 720" style="enable-background:new 0 0 720 720;" xml:space="preserve">
<style type="text/css">
	.st0{display:none;fill:#FDFEFE;}
	.st1{fill:#312D38;}
	.st2{display:none;}
	.st3{display:inline;}
	.st4{fill:#151515;}
	.st5{fill:none;stroke:#151515;stroke-width:4;stroke-miterlimit:10;}
</style>
<g id="Layer_1">
	<path class="st0" d="M363.31,131.24c-45.19,0-87.15,13.88-121.82,37.61c-23.02,10.67-44.23,25.43-62.7,43.9
		c-41.27,41.27-64,96.14-64,154.5c0,58.37,22.73,113.24,64,154.51c41.27,41.27,96.14,63.99,154.5,63.99
		c55.03,0,106.94-20.19,147.28-57.09c59.42-38.48,98.74-105.36,98.74-181.42C579.31,227.95,482.6,131.24,363.31,131.24z
		 M418.23,379.59c8.72,0,15.78,7.17,15.78,16.02c0,8.84-7.06,16.01-15.78,16.01c-8.72,0-15.79-7.17-15.79-16.01
		C402.44,386.76,409.51,379.59,418.23,379.59z M326.01,301.36h12.8v-27.28h27.34v27.28h24.04v22.9h-24.04v53.36
		c0,3.72,0.87,6.41,2.61,8.07c1.75,1.66,4.69,2.48,8.82,2.48h12.61v23.5h-17.06c-22.88,0-34.32-11.41-34.32-34.25v-53.16h-12.8
		V301.36z M333.29,580.75c-117.72,0-213.5-95.77-213.5-213.5c0-74.96,38.83-141.02,97.44-179.11
		c-42.98,39.47-69.92,96.14-69.92,159.1c0,119.29,96.71,216,216,216c32.28,0,62.91-7.08,90.41-19.78
		C419.42,566.98,377.94,580.75,333.29,580.75z"/>
	<path class="st1" d="M376.26,132.74c-45.19,0-87.15,13.88-121.82,37.61c-23.02,10.67-44.23,25.43-62.7,43.9
		c-41.27,41.27-64,96.14-64,154.5c0,58.37,22.73,113.24,64,154.51c41.27,41.27,96.14,63.99,154.5,63.99
		c55.03,0,106.94-20.19,147.28-57.09c59.42-38.48,98.74-105.36,98.74-181.42C592.26,229.46,495.55,132.74,376.26,132.74z
		 M431.18,381.09c8.72,0,15.78,7.17,15.78,16.02c0,8.84-7.06,16.01-15.78,16.01c-8.72,0-15.79-7.17-15.79-16.01
		C415.39,388.27,422.46,381.09,431.18,381.09z M338.96,302.86h12.8v-27.28h27.34v27.28h24.04v22.9H379.1v53.36
		c0,3.72,0.87,6.41,2.61,8.07c1.75,1.66,4.69,2.48,8.82,2.48h12.61v23.5h-17.06c-22.88,0-34.32-11.41-34.32-34.25v-53.16h-12.8
		V302.86z M346.24,582.26c-117.72,0-213.5-95.77-213.5-213.5c0-74.96,38.83-141.02,97.44-179.11
		c-42.98,39.47-69.92,96.14-69.92,159.1c0,119.29,96.71,216,216,216c32.28,0,62.91-7.08,90.41-19.78
		C432.37,568.48,390.89,582.26,346.24,582.26z"/>
</g>
<g id="Layer_2" class="st2">
	<g class="st3">
		<circle class="st4" cx="-356.61" cy="96.89" r="216"/>
		<circle class="st5" cx="-386.63" cy="116.9" r="216"/>
	</g>
</g>
</svg>
