<svg width="500" height="500" viewBox="0 0 500 500" fill="none" xmlns="http://www.w3.org/2000/svg">
<rect width="500" height="500" rx="88" fill="#E0FFCD"/>
<mask id="mask0_692_6" style="mask-type:alpha" maskUnits="userSpaceOnUse" x="112" y="112" width="276" height="276">
<rect x="112" y="112" width="276" height="276" fill="#D9D9D9"/>
</mask>
<g mask="url(#mask0_692_6)">
<path d="M181 365C174.675 365 169.26 362.748 164.756 358.244C160.252 353.739 158 348.325 158 342V204C158 197.675 160.252 192.26 164.756 187.756C169.26 183.252 174.675 181 181 181H204C204 168.35 208.504 157.521 217.512 148.512C226.521 139.504 237.35 135 250 135C262.65 135 273.479 139.504 282.487 148.512C291.496 157.521 296 168.35 296 181H319C325.325 181 330.739 183.252 335.244 187.756C339.748 192.26 342 197.675 342 204V342C342 348.325 339.748 353.739 335.244 358.244C330.739 362.748 325.325 365 319 365H181ZM181 342H319V204H296V227C296 230.258 294.898 232.989 292.694 235.194C290.489 237.398 287.758 238.5 284.5 238.5C281.241 238.5 278.51 237.398 276.306 235.194C274.102 232.989 273 230.258 273 227V204H227V227C227 230.258 225.898 232.989 223.694 235.194C221.489 237.398 218.758 238.5 215.5 238.5C212.241 238.5 209.51 237.398 207.306 235.194C205.102 232.989 204 230.258 204 227V204H181V342ZM227 181H273C273 174.675 270.748 169.26 266.244 164.756C261.739 160.252 256.325 158 250 158C243.675 158 238.26 160.252 233.756 164.756C229.252 169.26 227 174.675 227 181Z" fill="black"/>
</g>
</svg>
