<svg width="500" height="500" viewBox="0 0 500 500" fill="none" xmlns="http://www.w3.org/2000/svg">
<rect width="500" height="500" rx="88" fill="#CDCFFF"/>
<path d="M128 234.25V176.3C128 171.42 129.838 167.15 133.513 163.49C137.188 159.83 141.475 158 146.375 158H354.625C359.525 158 363.813 159.83 367.488 163.49C371.163 167.15 373 171.42 373 176.3V234.25H354.625V176.3H146.375V234.25H128ZM146.375 341C141.475 341 137.188 339.17 133.513 335.51C129.838 331.85 128 327.58 128 322.7V252.55H146.375V322.7H354.625V252.55H373V322.7C373 327.58 371.163 331.85 367.488 335.51C363.813 339.17 359.525 341 354.625 341H146.375ZM128 252.55V234.25H201.5C203.166 234.25 204.756 234.657 206.271 235.47C207.786 236.283 208.952 237.503 209.769 239.13L226.613 273.29L266.731 202.835C267.548 201.208 268.722 200.039 270.253 199.327C271.784 198.616 273.379 198.26 275.037 198.26C276.695 198.26 278.277 198.616 279.784 199.327C281.29 200.039 282.452 201.208 283.269 202.835L298.75 234.25H373V252.55H293.069C291.384 252.55 289.777 252.143 288.245 251.33C286.714 250.517 285.566 249.297 284.8 247.67L274.387 226.625L234.269 296.47C233.509 298.097 232.369 299.317 230.848 300.13C229.327 300.943 227.73 301.35 226.058 301.35C224.386 301.35 222.784 300.943 221.253 300.13C219.722 299.317 218.548 298.097 217.731 296.47L195.681 252.55H128Z" fill="black"/>
</svg>
