<svg width="500" height="500" viewBox="0 0 500 500" fill="none" xmlns="http://www.w3.org/2000/svg">
<rect width="500" height="500" rx="88" fill="#CDFFFF"/>
<path d="M149.384 347C143.879 347 139.106 344.697 135.065 340.092C131.022 335.489 129 330.053 129 323.782V175.3C129 169.007 131.022 163.55 135.065 158.932C139.106 154.311 143.879 152 149.384 152H351.545C357.07 152 361.86 154.311 365.915 158.932C369.972 163.55 372 169.007 372 175.3V323.782C372 330.053 369.972 335.489 365.915 340.092C361.86 344.697 357.07 347 351.545 347H149.384ZM149.384 323.782H351.545V175.3H149.384V323.782ZM228.623 300.319L294.744 249.541L228.623 199.104V300.319Z" fill="black"/>
</svg>
