<svg width="100" height="100" viewBox="0 0 100 100" fill="none" xmlns="http://www.w3.org/2000/svg">
<g clip-path="url(#clip0_99_60)">
<path d="M21.975 43.75C26.3015 43.75 30.5308 45.0329 34.1281 47.4366C37.7254 49.8403 40.5292 53.2567 42.1849 57.2538C43.8405 61.2509 44.2737 65.6493 43.4297 69.8926C42.5856 74.1359 40.5022 78.0337 37.443 81.093C34.3837 84.1522 30.4859 86.2356 26.2426 87.0797C21.9993 87.9237 17.6009 87.4905 13.6038 85.8349C9.60667 84.1792 6.19026 81.3754 3.7866 77.7781C1.38295 74.1808 0.1 69.9515 0.1 65.625L0 62.5C0 50.8968 4.60936 39.7688 12.8141 31.5641C21.0188 23.3594 32.1468 18.75 43.75 18.75V31.25C39.6444 31.239 35.5773 32.0419 31.784 33.6125C27.9906 35.183 24.5462 37.49 21.65 40.4C20.5243 41.5235 19.4859 42.7312 18.5438 44.0125C19.6625 43.8375 20.8063 43.7438 21.9688 43.7438L21.975 43.75ZM78.225 43.75C82.5515 43.75 86.7808 45.0329 90.3781 47.4366C93.9754 49.8403 96.7792 53.2567 98.4349 57.2538C100.091 61.2509 100.524 65.6493 99.6797 69.8926C98.8356 74.1359 96.7522 78.0337 93.693 81.093C90.6337 84.1522 86.7359 86.2356 82.4926 87.0797C78.2493 87.9237 73.8509 87.4905 69.8538 85.8349C65.8567 84.1792 62.4403 81.3754 60.0366 77.7781C57.6329 74.1808 56.35 69.9515 56.35 65.625L56.25 62.5C56.25 50.8968 60.8594 39.7688 69.0641 31.5641C77.2688 23.3594 88.3968 18.75 100 18.75V31.25C95.8944 31.239 91.8273 32.0419 88.034 33.6125C84.2406 35.183 80.7962 37.49 77.9 40.4C76.7743 41.5235 75.7359 42.7312 74.7938 44.0125C75.9125 43.8375 77.0562 43.75 78.225 43.75Z" fill="white"/>
</g>
<defs>
<clipPath id="clip0_99_60">
<rect width="100" height="100" fill="white"/>
</clipPath>
</defs>
</svg>
