<svg width="18" height="14" viewBox="0 0 18 14" fill="none" xmlns="http://www.w3.org/2000/svg">
<path d="M3.17813 0C3.74063 0 4.17188 0.270241 4.47188 0.810726C4.77188 1.35206 4.79062 1.90909 4.52812 2.48182L3.375 5.09091H5.625C6.24375 5.09091 6.77325 5.34036 7.2135 5.83927C7.6545 6.33733 7.875 6.93636 7.875 7.63636L7.875 11.4545C7.875 12.1545 7.6545 12.7536 7.2135 13.2516C6.77325 13.7505 6.24375 14 5.625 14L2.25 14C1.63125 14 1.10138 13.7505 0.660376 13.2516C0.220126 12.7536 0 12.1545 0 11.4545L0 5.69546C0 5.50455 0.0142494 5.30812 0.0427494 5.10618C0.0704994 4.90509 0.13125 4.7197 0.225 4.55L1.82813 0.954546C1.95937 0.657576 2.14687 0.424244 2.39063 0.254547C2.63438 0.0848501 2.89688 0 3.17813 0ZM13.3031 0C13.8656 0 14.2969 0.270241 14.5969 0.810726C14.8969 1.35206 14.9156 1.90909 14.6531 2.48182L13.5 5.09091L15.75 5.09091C16.3688 5.09091 16.8983 5.34036 17.3385 5.83927C17.7795 6.33733 18 6.93636 18 7.63636L18 11.4545C18 12.1545 17.7795 12.7536 17.3385 13.2516C16.8983 13.7505 16.3688 14 15.75 14L12.375 14C11.7562 14 11.2264 13.7505 10.7854 13.2516C10.3451 12.7536 10.125 12.1545 10.125 11.4545L10.125 5.69546C10.125 5.50455 10.1389 5.30812 10.1666 5.10618C10.1951 4.90509 10.2562 4.7197 10.35 4.55L11.9531 0.954546C12.0844 0.657576 12.2719 0.424244 12.5156 0.254547C12.7594 0.0848501 13.0219 0 13.3031 0Z" fill="#3C3C43"/>
</svg>
