<svg width="43" height="43" viewBox="0 0 43 43" fill="none" xmlns="http://www.w3.org/2000/svg">
<path d="M5.3147 43C3.84371 43 2.59019 42.482 1.55411 41.4459C0.518037 40.4098 0 39.1563 0 37.6853V5.3147C0 3.84372 0.518037 2.59018 1.55411 1.55411C2.59019 0.518036 3.84371 0 5.3147 0H37.6853C39.1563 0 40.4098 0.518036 41.4459 1.55411C42.482 2.59018 43 3.84372 43 5.3147V37.6853C43 39.1563 42.482 40.4098 41.4459 41.4459C40.4098 42.482 39.1563 43 37.6853 43H5.3147ZM5.3147 37.6853H37.6853V5.3147H5.3147V37.6853ZM12.239 33.0971H23.9196C24.5816 33.0971 25.1364 32.8733 25.5841 32.4255C26.0319 31.9777 26.2558 31.4229 26.2558 30.761C26.2558 30.0991 26.0319 29.5443 25.5841 29.0965C25.1364 28.6488 24.5816 28.4249 23.9196 28.4249H12.239C11.5771 28.4249 11.0223 28.6488 10.5745 29.0965C10.1267 29.5443 9.90286 30.0991 9.90286 30.761C9.90286 31.4229 10.1267 31.9777 10.5745 32.4255C11.0223 32.8733 11.5771 33.0971 12.239 33.0971ZM12.239 23.8361H30.761C31.4229 23.8361 31.9777 23.6123 32.4255 23.1645C32.8733 22.7167 33.0971 22.1619 33.0971 21.5C33.0971 20.8381 32.8733 20.2833 32.4255 19.8355C31.9777 19.3877 31.4229 19.1639 30.761 19.1639H12.239C11.5771 19.1639 11.0223 19.3877 10.5745 19.8355C10.1267 20.2833 9.90286 20.8381 9.90286 21.5C9.90286 22.1619 10.1267 22.7167 10.5745 23.1645C11.0223 23.6123 11.5771 23.8361 12.239 23.8361ZM12.239 14.5751H30.761C31.4229 14.5751 31.9777 14.3512 32.4255 13.9035C32.8733 13.4557 33.0971 12.9009 33.0971 12.239C33.0971 11.5771 32.8733 11.0223 32.4255 10.5745C31.9777 10.1267 31.4229 9.90286 30.761 9.90286H12.239C11.5771 9.90286 11.0223 10.1267 10.5745 10.5745C10.1267 11.0223 9.90286 11.5771 9.90286 12.239C9.90286 12.9009 10.1267 13.4557 10.5745 13.9035C11.0223 14.3512 11.5771 14.5751 12.239 14.5751Z" fill="white"/>
</svg>
